/* XPM */
static char *_e23f7bc9bf94dbe88b0c052edb4617aAlUclqMzjRZhcxGA[] = {
/* columns rows colors chars-per-pixel */
"55 50 165 2 ",
"   c None",
".  c #FFA300",
"X  c #FFA400",
"o  c #FFA401",
"O  c #FFA501",
"+  c #FFA502",
"@  c #FFA702",
"#  c #FFA506",
"$  c #FFA606",
"%  c #FFA802",
"&  c #FFA803",
"*  c #FFA903",
"=  c #FFAB05",
"-  c #FFAC05",
";  c #FFAD05",
":  c #FFAE06",
">  c #FFA608",
",  c #FFB007",
"<  c #FFB107",
"1  c #FFB208",
"2  c #FFB409",
"3  c #FFB70B",
"4  c #FFB80B",
"5  c #FFB90C",
"6  c #FFBA0C",
"7  c #FFBB0D",
"8  c #FFBC0D",
"9  c #FFBC0E",
"0  c #FFBD0E",
"q  c #FFBE0E",
"w  c #FFBE0F",
"e  c #FFBF0F",
"r  c #FFAA14",
"t  c #FFAC18",
"y  c #FFAF21",
"u  c #FFB737",
"i  c #FFBD39",
"p  c #FFB93C",
"a  c #FFC00F",
"s  c #FFC010",
"d  c #FFC110",
"f  c #FFC211",
"g  c #FFC311",
"h  c #FFC412",
"j  c #FFC512",
"k  c #FFC713",
"l  c #FFC914",
"z  c #FFCA15",
"x  c #FFCB15",
"c  c #FFCB16",
"v  c #FFCE17",
"b  c #FFD219",
"n  c #FFD51B",
"m  c #FFD61B",
"M  c #FFD91D",
"N  c #FFDA1D",
"B  c #FFDB1E",
"V  c #FFDC1E",
"C  c #FFDD1F",
"Z  c #FFCF26",
"A  c #FFC32B",
"S  c #FFDF20",
"D  c #FFD22E",
"F  c #FFCB3E",
"G  c #FFD532",
"H  c #FFD632",
"J  c #FFD53C",
"K  c #FFE020",
"L  c #FFE121",
"P  c #FFE221",
"I  c #FFE222",
"U  c #FFE322",
"Y  c #FFE523",
"T  c #FFE624",
"R  c #FFE725",
"E  c #FFE825",
"W  c #FFE925",
"Q  c #FFEA26",
"!  c #FFEB26",
"~  c #FFEB27",
"^  c #FFEC27",
"/  c #FFEC28",
"(  c #FFEC29",
")  c #FFEC2B",
"_  c #FFED31",
"`  c #FFEE3A",
"'  c #FFEE3B",
"]  c #FFEE3E",
"[  c #FFEE3F",
"{  c #FFBB43",
"}  c #FFBC46",
"|  c #FFBD49",
" . c #FFDD49",
".. c #FFC050",
"X. c #FFC051",
"o. c #FFEE41",
"O. c #FFEE42",
"+. c #FFE349",
"@. c #FFE04C",
"#. c #FFEF4B",
"$. c #FFF051",
"%. c #FFC662",
"&. c #FFC862",
"*. c #FFC968",
"=. c #FFCB6F",
"-. c #FFCB70",
";. c #FFD675",
":. c #FFF269",
">. c #FFF26B",
",. c #FFF26E",
"<. c #FFEF79",
"1. c #FFEE7B",
"2. c #FFF47D",
"3. c #FFD180",
"4. c #FFD484",
"5. c #FFD68C",
"6. c #FFDC88",
"7. c #FFDD92",
"8. c #FFF481",
"9. c #FFF487",
"0. c #FFF488",
"q. c #FFF588",
"w. c #FFF58B",
"e. c #FFF58D",
"r. c #FFE49C",
"t. c #FFF590",
"y. c #FFF694",
"u. c #FFF79F",
"i. c #FFDFA6",
"p. c #FFE0AA",
"a. c #FFF7A1",
"s. c #FFF6A3",
"d. c #FFF7A3",
"f. c #FFF6A6",
"g. c #FFE7BC",
"h. c #FFE7BD",
"j. c #FFFAC2",
"k. c #FFFAC4",
"l. c #FFFACA",
"z. c #FFFBCE",
"x. c #FFEED0",
"c. c #FFEED1",
"v. c #FFEFD3",
"b. c #FFF1D4",
"n. c #FFFBD2",
"m. c #FFFBD7",
"M. c #FFF8D8",
"N. c #FFFCDB",
"B. c #FFFCDC",
"V. c #FFFCDF",
"C. c #FFF4E1",
"Z. c #FFF4E2",
"A. c #FFFDE7",
"S. c #FFFDEA",
"D. c #FFF9EF",
"F. c #FFFDEC",
"G. c #FFFAF1",
"H. c #FFFEF0",
"J. c #FFFBF4",
"K. c #FFFEF5",
"L. c #FFFEF7",
"P. c #FFFFFA",
"I. c #FFFFFC",
"U. c #FFFFFE",
"Y. c white",
/* pixels */
"                                                                                                              ",
"                                                                                                              ",
"                                                                                                              ",
"                                                                                                              ",
"                                                                                                              ",
"                                                                                                              ",
"                                  . . . . . . . . . . . . . . . . . .                                         ",
"                                . . . . . . . . . . . . . . . . . . . .                                       ",
"                              . . . . . . . . . . . . . . . . . . . . . .                                     ",
"                            . . . - e e e e e e e e e e e e e e e 6 % . . .                                   ",
"                          . . . @ 6 R ^ ^ ^ ^ ^ ^ ^ ^ ^ ^ ^ ^ ^ ^ V , . . . .                                 ",
"                        . . . @ s N Q ^ ^ ^ ^ ^ ^ ^ ^ ^ ^ ^ ^ ^ ^ R n e . . . .                               ",
"                      . . . = 6 V ^ ^ U N N N N N N N N N N N N Y ^ ^ G p r . .                               ",
"                      . . . s U Q ^ ^ l - - - - - - - - - - - - b ^ ^ 1.c.} . .                               ",
"                      . . . j ^ ^ U l 2 . . . . . . . . . . . . 6 D 1.j.D.... .                               ",
"                      . . . j ^ ^ n % . . . . . . . . . . . . . % i b.Y.D.... .                               ",
"                      . . . j ^ ^ n % . . . . . . . . . . . . . s @.M.Y.D.... .                               ",
"                      . . . j ^ ^ V a - . . . . . . . . . . - e  .t.A.Y.D.... .                               ",
"                      . . . j ^ ^ Q Q s . . . . . . . . . . e Q a.P.Y.Y.D.... .                               ",
"                      . . . , j S ^ ^ N v v v v v v v v Z ;.r.f.N.Y.Y.h.%.y . .                               ",
"                        . . . % l U Q ^ ^ ^ ^ ^ ^ ^ ^ ] :.n.Y.Y.Y.J.c.-.. . . .                               ",
"                          . . @ - s Q ^ ^ ^ ^ ^ ^ ^ ^ 8.V.K.Y.Y.Y.c...t . . .                                 ",
"                            . . . , l l l l N ^ ^ o.2.k.G.p.5.5.5.=.t . . .                                   ",
"                              . . . . . . . s ^ _ :.A.Y.C.{ . . . . . . .                                     ",
"                                . . . . . . s ) 9.z.K.Y.C.{ . . . . . .                                       ",
"                                  . . . . . A ,.l.Y.Y.Y.C.{ . . . . .                                         ",
"                                      . . . &.H.P.Y.Y.Y.C.{ . .                                               ",
"                                      . . . *.Y.Y.Y.Y.Y.C.{ . .                                               ",
"                                      . . . *.Y.Y.Y.Y.Y.C.{ . . .                                             ",
"                                      . . . *.Y.Y.Y.Y.Y.C.{ . . . . . . .                                     ",
"                                      . . . *.Y.Y.Y.Y.Y.C.{ . . . . . . . .                                   ",
"                                      . . . *.Y.Y.Y.Y.Y.C.| > > > # @ @ . . .                                 ",
"                                      . . . *.Y.Y.Y.Y.Y.J.h.i.i.i.6.G e . . .                                 ",
"                                      . . . *.Y.Y.Y.Y.Y.Y.Y.Y.Y.V.a.o.l . . .                                 ",
"                                      . . . *.Y.Y.Y.Y.Y.Y.Y.Y.Y.e.' ) l . . .                                 ",
"                                      . . . *.Y.Y.Y.Y.Y.Y.Y.c.3.F j j 2 . . .                                 ",
"                                      . . . *.Y.Y.Y.Y.Y.Y.S.7.# . . . . . . .                                 ",
"                                      . . . *.Y.Y.Y.Y.Y.F.w.J @ . . . . . . .                                 ",
"                                      . . . *.Y.Y.Y.Y.m.u.#.V e e e e 1 . . .                                 ",
"                                      . . . *.Y.Y.Y.Y.y.) ) ^ Q Q Q Q l . . .                                 ",
"                                      . . . *.Y.Y.V.w.$.^ ^ ^ ^ ^ ^ ^ l . . .                                 ",
"                                      . . . *.Y.V.a.' ^ Q U N N N N N s . . .                                 ",
"                                      . . . *.P.w.] ) ^ Y e - - - - - % . . .                                 ",
"                                      . . . u 4.+.^ ^ N j - . . . . . . . .                                   ",
"                                      . . . . @ v Y Y j . . . . . . . . .                                     ",
"                                          . . @ , 4 4 - . . .                                                 ",
"                                          . . . . . . . . .                                                   ",
"                                              . . . . . .                                                     ",
"                                                                                                              ",
"                                                                                                              "
};
