/* XPM */
static char *result[] = {
/* columns rows colors chars-per-pixel */
"50 50 120 2 ",
"   c #191516",
".  c #181617",
"X  c #191718",
"o  c #1B1718",
"O  c #1A1819",
"+  c #1B191A",
"@  c #1C1819",
"#  c #1D191A",
"$  c #1E181A",
"%  c #1C1A1B",
"&  c #1E1A1B",
"*  c #1D1B1C",
"=  c #1E1B1C",
"-  c #1F1B1C",
";  c #1E1C1D",
":  c #1E1D1E",
">  c #1F1D1E",
",  c #201C1D",
"<  c #211C1E",
"1  c #201D1E",
"2  c #211D1E",
"3  c #231D1F",
"4  c #211E1E",
"5  c #201E1F",
"6  c #221E1F",
"7  c #221F1F",
"8  c #231F1F",
"9  c #211E20",
"0  c #201F20",
"q  c #211F20",
"w  c #231F20",
"e  c #241E20",
"r  c #241F21",
"t  c #232020",
"y  c #222021",
"u  c #222022",
"i  c #232122",
"p  c #232223",
"a  c #242020",
"s  c #242021",
"d  c #252121",
"f  c #252022",
"g  c #242122",
"h  c #252122",
"j  c #252123",
"k  c #262022",
"l  c #272123",
"z  c #242223",
"x  c #262223",
"c  c #272223",
"v  c #252324",
"b  c #272324",
"n  c #252425",
"m  c #262425",
"M  c #272526",
"N  c #292325",
"B  c #282424",
"V  c #282425",
"C  c #292526",
"Z  c #282627",
"A  c #2A2627",
"S  c #292728",
"D  c #2A2829",
"F  c #2C2829",
"G  c #2D292A",
"H  c #2E2D2E",
"J  c #2F2E2F",
"K  c #342E30",
"L  c #353132",
"P  c #393738",
"I  c #3C3839",
"U  c #403E3F",
"Y  c #454344",
"T  c #464244",
"R  c #454445",
"E  c #474444",
"W  c #4A4647",
"Q  c #4C4A4C",
"!  c #4E4C4D",
"~  c gray31",
"^  c #525152",
"/  c #535353",
"(  c #545252",
")  c gray33",
"_  c #575556",
"`  c #595556",
"'  c #5B5B5B",
"]  c #5F5B5C",
"[  c gray37",
"{  c #605E5F",
"}  c #686868",
"|  c #6C6869",
" . c #6F6F6F",
".. c #737173",
"X. c #757273",
"o. c gray48",
"O. c #7C7878",
"+. c #848484",
"@. c #8A8889",
"#. c #8E8E8E",
"$. c #908E90",
"%. c #9E9C9D",
"&. c gray62",
"*. c #A2A0A1",
"=. c #C0BEBF",
"-. c gray79",
";. c #D9D7D9",
":. c #EBE9EA",
">. c #ECECEC",
",. c gray96",
"<. c gray97",
"1. c #F8F8F8",
"2. c #F9F9F9",
"3. c gray98",
"4. c #FBFBFB",
"5. c gray99",
"6. c #FDFDFD",
"7. c #FEFEFE",
"8. c white",
"9. c None",
/* pixels */
"9.9.9.9.9.9.9.9.9.9.9.9.9.9.9.9.9.9.9.9.9.9.9.9.9.9.9.9.9.9.9.9.9.9.9.9.9.9.9.9.9.9.9.9.9.9.9.9.9.9.",
"9.9.9.9.9.9.9.9.9.9.9.9.9.9.9.9.9.9.9.9.9.9.9.9.9.9.9.9.9.9.9.9.9.9.9.9.9.9.9.9.9.9.9.9.9.9.9.9.9.9.",
"9.9.9.9.9.9.9.9.9.9.9.9.9.9.9.9.9.9.9.9.9.9.9.9.9.9.9.9.9.9.9.9.9.9.9.9.9.9.9.9.9.9.9.9.9.9.9.9.9.9.",
"9.9.9.9.9.9.9.9.9.9.9.9.9.9.9.9.9.9.9.9.9.9.9.9.9.9.9.9.9.9.9.9.9.9.9.9.9.9.9.9.9.9.9.9.9.9.9.9.9.9.",
"9.9.9.9.9.9.9.9.9.9.9.9.9.9.9.9.9.9.9.9.9.9.9.9.9.9.9.9.9.9.9.9.9.9.9.9.9.9.9.9.9.9.9.9.9.9.9.9.9.9.",
"9.9.9.9.9.9.9.9.9.9.9.9.9.9.9.9.9.9.9.9.9.9.9.9.9.9.9.9.9.9.9.9.9.9.9.9.9.9.9.9.9.9.9.9.9.9.9.9.9.9.",
"9.9.9.9.9.9.9.9.9.9.9.9.9.9.9.9.9.9.9.9.9.9.9.9.9.9.9.9.9.9.9.9.9.9.9.9.9.9.9.9.9.9.9.9.9.9.9.9.9.9.",
"9.9.9.9.9.9.9.9.9.9.9.9.9.9.9.9.9.9.9.9.9.9.9.9.9.9.9.9.9.9.9.9.9.9.9.9.9.9.9.9.9.9.9.9.9.9.9.9.9.9.",
"9.9.9.9.9.9.9.9.9.9.9.9.9.9.9.9.9.9.9.9.9.9.9.9.9.9.9.9.9.9.9.9.9.9.9.9.9.9.9.9.9.9.9.9.9.9.9.9.9.9.",
"9.9.9.9.9.9.9.9.9.9.9.9.9.9.9.9.9.9.9.9.9.9.9.9.9.9.9.9.9.9.9.9.9.9.9.9.9.9.9.9.9.9.9.9.9.9.9.9.9.9.",
"9.9.9.9.9.9.9.9.9.9.9.9.9.9.9.9.9.9.9.9.9.9.9.9.9.9.9.9.9.9.9.9.9.9.9.9.9.9.9.9.9.9.9.9.9.9.9.9.9.9.",
"9.9.9.9.9.9.9.9.9.9.9.9.9.9.9.9.9.9.9.8.8.5.1.,.<.1.2.2.3.4.6.7.8.7.5.9.9.9.9.9.9.9.9.9.9.9.9.9.9.9.",
"9.9.9.9.9.9.9.9.9.9.9.9.9.9.9.9.9.9.9.9.9.9.9.9.9.9.9.9.9.9.9.9.9.9.9.9.9.9.9.9.9.9.9.9.9.9.9.9.9.9.",
"9.9.9.9.9.9.9.9.9.9.9.9.9.9.9.9.9.9.9.9.9.9.9.9.9.9.9.9.9.9.9.9.9.9.9.9.9.9.9.9.9.9.9.9.9.9.9.9.9.9.",
"9.9.9.9.9.9.9.9.9.9.9.9.9.9.9.9.9.9.9.9.9.9.9.9.9.9.9.9.9.9.9.9.9.9.9.9.9.9.9.9.9.9.9.9.9.9.9.9.9.9.",
"9.9.9.9.9.9.9.9.9.9.9.9.9.9.9.9.9.9.9.9.9.9.9.9.9.9.9.9.9.9.9.9.9.9.9.9.9.9.9.9.9.9.9.9.9.9.9.9.9.9.",
"9.9.9.9.9.9.9.9.9.9.9.9.9.9.9.9.9.9.9.9.9.9.9.9.9.9.9.9.9.9.9.9.9.9.9.9.9.9.9.9.9.9.9.9.9.9.9.9.9.9.",
"9.9.9.9.9.9.9.9.9.9.9.9.9.9.9.9.9.O.] T K x 6 r x a 2 , x L W ` X.#.9.9.9.9.9.9.9.9.9.9.9.9.9.9.9.9.",
"9.9.9.9.9.9.9.9.9.9.9.9.( Z O M s , - 2 8 6 w x & 6 h x s 6 2 2 ; v i % v ! $.9.9.9.9.9.9.9.9.9.9.9.",
"9.9.9.9.9.9.9.9...P . * q y z 5 w w x V b 6 & & w w 6 6 6 s x V > 5 > 5 v z > ; H 9.9.9.9.9.9.9.9.9.",
"9.9.9.9.9.9.R y 2 x w x F 2   x s 6 2 2 , 2 s V s w w w 6 2 - & q z y > 5 > 5 v z > 5 9.9.9.9.9.9.9.",
"9.9.9.9.^ % 5 q h # , w # 6 C w w s h x h w 6 6 h w 6 2 w h b V 5 q > > i y > 5 * y y X = 9.9.9.9.9.",
"9.9.9.G s V 6 6 x b 3 e N 3 $ 3 w w w 6 6 6 6 6 6 w s h s 6 , & s x w 6 s w 6 h b - s C t 6 B 9.9.9.",
"9.9.b 6 w @ V 2 2 6 e 3 3 k l e w w w 6 w s s w s w w 6 6 6 w s , s s w s 6 2 s s , h - b 4 x 9.9.9.",
"9.E 6 w s 2 w w e e e e e e e e w w w w w w w w w w w w w w w w w w w w w w w w s & h h w h - 0 9.9.",
"9.< f - - b , h e e e e e e e e w w w w w w w w w w w w w w w w w w w w w w w w 6 F - @ s w f 9 9.9.",
"9.s 7 x x C - w w w e e e e e e w w w w w w w w w w w w w w w w w w w w w w w w 2 & b C 2 & 2 g 9.9.",
"9.9.1 s w & C , w w e e e e e e w w w w w w w w w w w w w w w w w w w w w w w w 2 A , @ x b s u 9.9.",
"9.9.9.q + y s s w w w w w w w w w w w w w w w w w w w w w w w w w w w w w w w w & b - A V o d 1 9.9.",
"9.9.9.9.J O s - w w w w w w w w w w w w w w w w w w w w w w w w w w w w w w w w w - b @ - c j 9.9.9.",
"9.9.9.9.9.v q z w w w w w w w w w w w w w w w w w w w w w w w w q q q q q q q q z * v ; p : 9.9.9.9.",
"9.9.9.9.9.9.g ; w w w w w w w w w w w w w w w w w w w w w w w w q q q q q q q q > z * i n 9.9.9.9.9.",
"9.9.9.9.9.9.9.> q 5 5 5 5 i i ; x w 2 6 6 6 w s w 2 2 6 w w w s & x h 2 w w > i * v % Q 9.9.9.9.9.9.",
"9.9.9.9.9.9.9.9.9.D . v M O O S - 2 h b h 6 6 w s w s x h 6 2 2 V w s x w 6 q q q _ 9.9.9.9.9.9.9.9.",
"9.9.9.9.9.9.9.9.9.9.9.U 5 M S X m q * ; 5 5 5 5 z y q 5 ; ; q v s 6 # 6 q * Y @.9.9.9.9.9.9.9.9.9.9.",
"9.9.9.9.9.9.9.9.9.9.9.9.9.%.{ P > q i z y 5 i M % ; y z i > ; 5 s w I | *.;.9.9.9.9.9.9.9.9.9.9.9.9.",
"9.9.9.9.9.9.9.9.9.9.9.9.9.9.9.9.>.-.&.+.o. .[ ~ / / ) ' } o.#.&.=.:.9.9.9.9.9.9.9.9.9.9.9.9.9.9.9.9.",
"9.9.9.9.9.9.9.9.9.9.9.9.9.9.9.9.9.9.9.8.8.8.8.8.7.7.8.8.8.7.7.9.9.9.9.9.9.9.9.9.9.9.9.9.9.9.9.9.9.9.",
"9.9.9.9.9.9.9.9.9.9.9.9.9.9.9.9.9.9.9.9.9.9.9.9.9.9.9.9.9.9.9.9.9.9.9.9.9.9.9.9.9.9.9.9.9.9.9.9.9.9.",
"9.9.9.9.9.9.9.9.9.9.9.9.9.9.9.9.9.9.9.9.9.9.9.9.9.9.9.9.9.9.9.9.9.9.9.9.9.9.9.9.9.9.9.9.9.9.9.9.9.9.",
"9.9.9.9.9.9.9.9.9.9.9.9.9.9.9.9.9.9.9.9.9.9.9.9.9.9.9.9.9.9.9.9.9.9.9.9.9.9.9.9.9.9.9.9.9.9.9.9.9.9.",
"9.9.9.9.9.9.9.9.9.9.9.9.9.9.9.9.9.9.9.9.9.9.9.9.9.9.9.9.9.9.9.9.9.9.9.9.9.9.9.9.9.9.9.9.9.9.9.9.9.9.",
"9.9.9.9.9.9.9.9.9.9.9.9.9.9.9.9.9.9.9.9.9.9.9.9.9.9.9.9.9.9.9.9.9.9.9.9.9.9.9.9.9.9.9.9.9.9.9.9.9.9.",
"9.9.9.9.9.9.9.9.9.9.9.9.9.9.9.9.9.9.9.9.9.9.9.9.9.9.9.9.9.9.9.9.9.9.9.9.9.9.9.9.9.9.9.9.9.9.9.9.9.9.",
"9.9.9.9.9.9.9.9.9.9.9.9.9.9.9.9.9.9.9.9.9.9.9.9.9.9.9.9.9.9.9.9.9.9.9.9.9.9.9.9.9.9.9.9.9.9.9.9.9.9.",
"9.9.9.9.9.9.9.9.9.9.9.9.9.9.9.9.9.9.9.9.9.9.9.9.9.9.9.9.9.9.9.9.9.9.9.9.9.9.9.9.9.9.9.9.9.9.9.9.9.9.",
"9.9.9.9.9.9.9.9.9.9.9.9.9.9.9.9.9.9.9.9.9.9.9.9.9.9.9.9.9.9.9.9.9.9.9.9.9.9.9.9.9.9.9.9.9.9.9.9.9.9.",
"9.9.9.9.9.9.9.9.9.9.9.9.9.9.9.9.9.9.9.9.9.9.9.9.9.9.9.9.9.9.9.9.9.9.9.9.9.9.9.9.9.9.9.9.9.9.9.9.9.9.",
"9.9.9.9.9.9.9.9.9.9.9.9.9.9.9.9.9.9.9.9.9.9.9.9.9.9.9.9.9.9.9.9.9.9.9.9.9.9.9.9.9.9.9.9.9.9.9.9.9.9.",
"9.9.9.9.9.9.9.9.9.9.9.9.9.9.9.9.9.9.9.9.9.9.9.9.9.9.9.9.9.9.9.9.9.9.9.9.9.9.9.9.9.9.9.9.9.9.9.9.9.9."
};
