/* XPM */
static char *result[] = {
/* columns rows colors chars-per-pixel */
"50 50 234 2 ",
"   c #591C00",
".  c #4B2602",
"X  c #4C2B03",
"o  c #4B2C09",
"O  c #462907",
"+  c #522B03",
"@  c #5C2A02",
"#  c #532C0B",
"$  c #562500",
"%  c #463109",
"&  c #533103",
"*  c #5B3103",
"=  c #51310B",
"-  c #563800",
";  c #482F10",
":  c #553B1C",
">  c #5B3714",
",  c #4E2F19",
"<  c #602B00",
"1  c #603000",
"2  c #733800",
"3  c #643818",
"4  c #713C1D",
"5  c #573F2E",
"6  c #6B440A",
"7  c #714100",
"8  c #6A4215",
"9  c #7B4B14",
"0  c #77491A",
"q  c #7C5014",
"w  c #75521C",
"e  c #5B5032",
"r  c #5D452B",
"t  c #734C21",
"y  c #794B23",
"u  c #7B5424",
"i  c #765325",
"p  c #76593B",
"a  c #624E33",
"s  c #5F5440",
"d  c #833000",
"f  c #824C00",
"g  c #854904",
"h  c #924E00",
"j  c #8F5100",
"k  c #945700",
"l  c #834E1E",
"z  c #84531A",
"x  c #99660B",
"c  c #93670F",
"v  c #A66700",
"b  c #A77000",
"n  c #B37409",
"m  c #B26F14",
"M  c #835121",
"N  c #815028",
"B  c #875030",
"V  c #9F6126",
"C  c #87673E",
"Z  c #B16F32",
"A  c #FF5E08",
"S  c #EB5F07",
"D  c #D76E1B",
"F  c #D7761D",
"G  c #C46417",
"H  c #EE6C01",
"J  c #E76B0B",
"K  c #F56603",
"L  c #FD6502",
"P  c #F56D02",
"I  c #FC6C01",
"U  c #FE640B",
"Y  c #F56B0D",
"T  c #FE6B0B",
"R  c #F36609",
"E  c #E77300",
"W  c #EC7402",
"Q  c #ED720B",
"!  c #E2720C",
"~  c #F47201",
"^  c #FC7201",
"/  c #F27C00",
"(  c #FB7B01",
")  c #F2720C",
"_  c #FD7309",
"`  c #F07E0C",
"'  c #E66B14",
"]  c #EB6E11",
"[  c #E56D1B",
"{  c #EC6E1B",
"}  c #E56619",
"|  c #F46D15",
" . c #FD6C12",
".. c #FA6A17",
"X. c #EB7213",
"o. c #E4751D",
"O. c #EA731B",
"+. c #E57115",
"@. c #F47213",
"#. c #FC7212",
"$. c #F1721A",
"%. c #FD731A",
"&. c #F77919",
"*. c #D86E24",
"=. c #DF7327",
"-. c #DB762C",
";. c #D97826",
":. c #DA6E30",
">. c #D97A3A",
",. c #E56D24",
"<. c #F06D22",
"1. c #E37323",
"2. c #EA7321",
"3. c #E2742B",
"4. c #E37A2C",
"5. c #E97728",
"6. c #E47B35",
"7. c #E57736",
"8. c #F17D30",
"9. c #F17724",
"0. c #876945",
"q. c #90714E",
"w. c #A07F60",
"e. c #D37E47",
"r. c #C28519",
"t. c #D08011",
"y. c #D39718",
"u. c #D18C06",
"i. c #EE8400",
"p. c #ED860C",
"a. c #F48503",
"s. c #FD8402",
"d. c #F58C02",
"f. c #FD8B02",
"g. c #FF8C09",
"h. c #F5820D",
"j. c #EA9104",
"k. c #FE9302",
"l. c #FE9A03",
"z. c #FF9D0C",
"x. c #F89606",
"c. c #ED8F18",
"v. c #EB8915",
"b. c #F7871A",
"n. c #EF9410",
"m. c #FF9D14",
"M. c #F3941A",
"N. c #F49C19",
"B. c #EBA807",
"V. c #F5A701",
"C. c #FDA603",
"Z. c #F6AB02",
"A. c #FDAC03",
"S. c #FEA50C",
"D. c #FEAC0B",
"F. c #F7A60D",
"G. c #EFB108",
"H. c #F6B202",
"J. c #FDB203",
"K. c #F6B20B",
"L. c #FEB20B",
"P. c #FFBB09",
"I. c #E9AD17",
"U. c #FFA413",
"Y. c #F3AD13",
"T. c #FEAB13",
"R. c #FEAD1A",
"E. c #F7A316",
"W. c #FEB213",
"Q. c #F9B319",
"!. c #EFB21B",
"~. c #D38D2E",
"^. c #E48327",
"/. c #F28827",
"(. c #FF962D",
"). c #FA8A36",
"_. c #EE923E",
"`. c #FF9335",
"'. c #F59332",
"]. c #ECA527",
"[. c #FDA424",
"{. c #F4AD23",
"}. c #FFAD24",
"|. c #FDAA2B",
" X c #EAB122",
".X c #FDB423",
"XX c #FFB32A",
"oX c #FEB92E",
"OX c #FFBB22",
"+X c #FAB633",
"@X c #E6AB32",
"#X c #FFC02E",
"$X c #A2805D",
"%X c #9E8066",
"&X c #968772",
"*X c #D78346",
"=X c #C38346",
"-X c #FC9247",
";X c #FA9954",
":X c #E68E4D",
">X c #FFAA5B",
",X c #FFA959",
"<X c #ECA56F",
"1X c #FCAC6A",
"2X c #FCA86A",
"3X c #FFB36C",
"4X c #FFB163",
"5X c #EDAB7D",
"6X c #ECA675",
"7X c #FAAD78",
"8X c #FFB573",
"9X c #FFBD73",
"0X c #FAB97E",
"qX c #FFC46E",
"wX c #FFCF79",
"eX c #FFC27B",
"rX c #B09982",
"tX c #EAB68C",
"yX c #EBB88D",
"uX c #F5B186",
"iX c #F9B688",
"pX c #F7BB96",
"aX c #F1B58A",
"sX c #FFC796",
"dX c #FFD198",
"fX c #FFD582",
"gX c #FFD4A7",
"hX c #FFE8C7",
"jX c #FFF4CF",
"kX c #FFF5DF",
"lX c #FFFADE",
"zX c #FFFAEE",
"xX c #FFF5E1",
"cX c None",
/* pixels */
"cXcXcXcXcXcXcXcXcXcXcXcXcXcXcXcXcXcXcXcXcXcXcXcXcXcX-XR ,.cXcXcXcXcXcXcXcXcXcXcXcXcXcXcXcXcXcXcXcXcX",
"cXcXcXcXcXcXcXcXcXcXcXcXcXcXcXcXcXcXcXcXcXcXcXcXcX*X[ %.{ :XcXcXcXcXcXcXcXcXcXcXcXcXcXcXcXcXcXcXcXcX",
"cXcXcXcXcXcXcXcXcXcXcXcXcXcXcXcXcXcXcXcXcXcXcXcX:X2...U Y *.cXcXcXcXcXcXcXcXcXcXcXcXcXcXcXcXcXcXcXcX",
"cXcXcXcXcXcXcXcXcXcXcXcXcXcXcXcXcXcXcXcXcXcXcX<X=.#. .A T 5.cXcXcXcXcXcXcXcXcXcXcXcXcXcXcXcXcXcXcXcX",
"cXcXcXcXcXcXcXcXcXcXcXcXcXcXcXcXcXcXcXcXcXcX7X1.&.L I L T } cXcXcXcXcXcXcXcXcXcXcXcXcXcXcXcXcXcXcXcX",
"cXcXcXcXcXcXcXcXcXcXcXcXcXcXcXcXcXcXcXcXcXcX3.@.P ^ ^ L U { cXcXcXcXcXcXcXcXcXcXcXcXcXcXcXcXcXcXcXcX",
"cXcXcXcXcXcXcXcXcXcXcXcXcXcXcXcXcXcXcXcXcX=.' P ^ L P _ | -XcX;X-.6.cXcXcXcXcXcXcXcXcXcXcXcXcXcXcXcX",
"cXcXcXcXcXcXcXcXcXcXcXcXcXcXcXcXcXcXcXcXcXX.@.~ L ^ ~ H $.>XcX3.| | ' 5.-.cXcXcXcXcXcXcXcXcXcXcXcXcX",
"cXcXcXcXcXcXcXcXcXcXcXcXcXcXcXcXcXcXcXcX1.) @.R I ^ ~ Q O.>XcX5.R I I P ] -.cXcXcXcXcXcXcXcXcXcXcXcX",
"cXcXcXcXcXcXcXcXcXcXcXcXcXcXcXcXcXcXcXcXX.K U  .I I P Q 2.3XcX*.T I I ^ I [ cXcXcXcXcXcXcXcXcXcXcXcX",
"cXcXcXcXcXcXcXcXcXcXcXcXcXcXcXcXcXcXcX>.O.T A A I I ( ) [ 1XeX=.Y L I ^ I T 8.cXcXcXcXcXcXcXcXcXcXcX",
"cXcXcXcXcXcXcXcXcXcXcXcXcXcXcXcXcXcX8X[ |  . .A T P P E o.3X9X1.| I I I I I R 6.pXcXcXcXcXcXcXcXcXcX",
"cXcXcXcXcXcXcXcXcXcXcXcXcXcXcXcXcXcX4X .T U U T I P m.[.^.3X9X[ $. .I ~ P T U ,.cXcXcXcXcXcXcXcXcXcX",
"cXcXcXcXcXcXcXcXcXcXcXcXcXcXcXcXcXyX5.K I I T L I W k.|.wX1X2.$.$.Y ~ ~ P P  .<.cXcXcXcXcXcXcXcXcXcX",
"cXcXcXcXcXcXcXcXcXcXcXcXcXcXcXcXcX5X,.I ^ I L ~ E m.R.E.fX8X] L I L ~ ~ P I T | 6.sXcXcXcXcXcXcXcXcX",
"cXcXcXcXcXcXcXcXcXcXcXcXcXcXcXcXcX5X2.L L ( P ~ m.E.S.n.wX4XQ ^ I ^ W / L T U  .' 0XcXcXcXcXcXcXcXcX",
"cXcXcXcXcXcXcXcXcXcXcXcXcXcXcXcXxX5X2.I I ^ P ~ U.U.m.v.qX>XW a.l.k.W P L U  .Y Q 4XcXcXcXcXcXcXcXcX",
"cXcXcXcXcXcXcXcXcXcXcXcXcXcXcXcXxX5X{ _ L ^ P k.S.D.R.p.`./.a.z.C.D.f.( T U T T Q _.cXcXcXcXcXcXcXcX",
"cXcXcXcXcXcXcXcXcXcXcXcXcXcXcXcXlX6XO.L ^ P / S.A.D.T.i.Q Q a.U.D.D.z.P T L L T ) ;.yXcXcXcXcXcXcXcX",
"cXcXcXcXcXcXcXcXcX~.4.>.cXcXcXcXjX1X2.Y _ ~ d.D.J.Z.S.f.~ ) a.S.D.A.z./ P T L I ~ F yXcXcXcXcXcXcXcX",
"cXcXcXcXcXcXcXcXcX-.$.} e.hXcXzXgX;X{ P L s.l.D.J.J.C.f.H ~ a.U.L.A.S.f.P _ I I P o.iXcXcXcXcXcXcXcX",
"cXcXcXcXcXcXcXcXcX3.R %.:.hXcXzX6X-.' H ( ( T.D.A.L.C.a.P ^ s.U.A.A.D.m.W P I I ^ O.iXcXcXcXcXcXcXcX",
"cXcXcXcXcXcXcXcXcX3... .5.dXkXxXiXe.9.&.b.h..XD.D.D.C.a.^ I s.S.D.C.D.U.f.P P I I O.uXcXcXcXcXcXcXcX",
"cXcXcXcXcXcXcXcXcX:...U O.:.gXjXcX2X5.).{ b.}.T.D.T.T.a.P K g.U.C.A.D.D.m./ ^ I L O.uXcXcXcXcXcXcXcX",
"cXcXcXcXcXcXcXcXcXD @.I _ ! 6.dXcX7X*.`.@.` |.oX{.oXXXM.`./.M.R.D.H.A.D.U./ ^ I I O.iXcXcXcXcXcXcXcX",
"cXcXcXcXcXcXcXcXcX' P P ~ Y ] 4.sX2X4.(.J h.oXoXoXoXoX|.'./.(.Y.D.H.J.C.U./ ^ I I { uXcXcXcXcXcXcXcX",
"cXcXcXcXcXcXcXcX).Y I I P P I [ 9X1X^.(.c.M.}.#XQ.R..XXXc.M.B.V.A.A.J.A.D./ ~ I T 2.uXcXcXcXcXcXcXcX",
"cXcXcXcXcXcXcXcX' L L I ^ ~ L &.9X,Xv.[.N.j.j.C.T.L.Q..Xn.U.D.A.J.A.J.A.S./ ~ I L 2.aXcXcXcXcXcXcXcX",
"cXcXcXcXcXcXcXcX9.L L I ~ ~ I L &.b.p.U.T.C.l.C.C.J.H.K.R.R.L.J.A.J.J.A.S./ ~ I Y 1.tXcXcXcXcXcXcXcX",
"cXcXcXcXcXcXcXcX[ L  ._ g.g.( P L ( g.T.D.A.C.C.A.J.H.H.W.D.A.A.A.J.J.C.T.i.P T @.4.yXcXcXcXcXcXcXcX",
"cXcXcXcXcXcXcXcX=.#.Y H U.D.f.( ^ H d.U.Y.D.A.J.J.J.J.J.L.D.K.K.K.A.J.C.D./ P T $.-XcXcXcXcXcXcXcXcX",
"cXcXcXcXcXcXcXcX=.L P / S.C.D.k./ W x.T.K.K.J.C.J.H.J.J.C.Z.D.Z.A.J.J.D.U./ P T O.cXcXcXcXcXcXcXcXcX",
"cXcXcXcXcXcXcXcXO.L I P S.D.C.D.k.d.l.D.A.A.A.C.A.J.H.H.J.D.D.A.Z.L.L.T.g.( P Q -XcXcXcXcXcXcXcXcXcX",
"cXcXcXcXcXcXcXcX+.^ I ( z.S.L.Z.Z.L.V.K.L.J.D.A.P.J.J.H.Z.D.L.Z.Y.Y.{.[./ ~ T $.cXcXcXcXcXcXcXcXcXcX",
"cXcXcXcXcXcXcXcXO.L P ~ S.S.L.L.L.Z.L.D.D.J.A.C.Z.V.A.L.K.Z.K.G.y.r.~.~.! #.R ,.cXcXcXcXcXcXcXcXcXcX",
"cXcXcXcXcXcXcXcX1._ ~ / m.T.V.H.A.Z.D.D.C.C.P.Z.D.W.D.D.F.OXI.b @ @ @ 2 G ' &.^.cXcXcXcXcXcXcXcXcXcX",
"cXcXcXcXcXcXcXcX6.Y P H i.z.D.Z.A.L.A.P.H.P.B.J.V.T.F.R.].@Xm * $ @ @   d G -.cXcXcXcXcXcXcXcXcXcXcX",
"cXcXcXcXcXcXcXcXcX[ &.W E m.A.J.A.C.K.K.G.B.H.J.Z.W.E.].n 2 . X * X . @   Z =XcXcXcXcXcXcXcXcXcXcXcX",
"cXcXcXcXcXcXcXcXcX:.' P ^ z.C.J.A.J.G.!.y.b !.G.L.Y.v j f 7 - & X & + + + 3 cXcXcXcXcXcXcXcXcXcXcXcX",
"cXcXcXcXcXcXcXcXcXcX6.| P ~ D.C.A.V.P.u.k k x  X X@Xx g q 6 & & + . # X ; cXcXcXcXcXcXcXcXcXcXcXcXcX",
"cXcXcXcXcXcXcXcXcXcXcX2.L I S.C.D.A.J.B.t.h j x x c z z q 6 & + X = o O cXcXcXcXcXcXcXcXcXcXcXcXcXcX",
"cXcXcXcXcXcXcXcXcXcXcXe.) P ( k.D.D.F.F.].r.7 q M 9 9 9 6 - + # O o : cXcXcXcXcXcXcXcXcXcXcXcXcXcXcX",
"cXcXcXcXcXcXcXcXcXcXcXcX-.X.~ s.z.U.U.{.+X~.6 q N 0 M l 0 * o , , r cXcXcXcXcXcXcXcXcXcXcXcXcXcXcXcX",
"cXcXcXcXcXcXcXcXcXcXcXcXcX^.O.Q p.c.F n x k & 8 y B l 9 N 8 3 p cXcXcXcXcXcXcXcXcXcXcXcXcXcXcXcXcXcX",
"cXcXcXcXcXcXcXcXcXcXcXcXcXcX*X-.F m g < + - . + 4 B l 9 y t u q.cXcXcXcXcXcXcXcXcXcXcXcXcXcXcXcXcXcX",
"cXcXcXcXcXcXcXcXcXcXcXcXcXcXcX0X<XV   $ & X & X 3 3 y u 0 w w u 0.cXcXcXcXcXcXcXcXcXcXcXcXcXcXcXcXcX",
"cXcXcXcXcXcXcXcXcXcXcXcXcXcXcXcXcX$X. + X . & = % ; q.w.%X0.w 0 u 0.cXcXcXcXcXcXcXcXcXcXcXcXcXcXcXcX",
"cXcXcXcXcXcXcXcXcXcXcXcXcXcXcXcXcX&X; o o # ; O ; e cXcXcXcX0.0.i i cXcXcXcXcXcXcXcXcXcXcXcXcXcXcXcX",
"cXcXcXcXcXcXcXcXcXcXcXcXcXcXcXcXcXcXr o . > O a s cXcXcXcXcXcXcX0.p cXcXcXcXcXcXcXcXcXcXcXcXcXcXcXcX",
"cXcXcXcXcXcXcXcXcXcXcXcXcXcXcXcXcXcXrX: > X : cXcXcXcXcXcXcXcXcXcXcXcXcXcXcXcXcXcXcXcXcXcXcXcXcXcXcX"
};
