/* XPM */
static char *abfcd2582c6a487e88edf5c32421effcV1YsbJrqRtzwF7DF[] = {
/* columns rows colors chars-per-pixel */
"50 50 35 1 ",
"  c #4E4B47",
". c #4F4C47",
"X c #4E4B48",
"o c #4F4C48",
"O c #504D49",
"+ c #534F4C",
"@ c #53504B",
"# c #53504C",
"$ c #55524E",
"% c #57544F",
"& c #58544F",
"* c #575450",
"= c #595651",
"- c #5B5853",
"; c #5C5853",
": c #5B5854",
"> c #5E5B56",
", c #5F5C57",
"< c #5F5C58",
"1 c #605C57",
"2 c #635F5B",
"3 c #63605B",
"4 c #64605B",
"5 c #63615C",
"6 c #64615C",
"7 c #67645F",
"8 c #68645F",
"9 c #696661",
"0 c #6B6863",
"q c #6C6863",
"w c #6D6A65",
"e c #6F6C66",
"r c #706B66",
"t c #706C67",
"y c #726E69",
/* pixels */
"2$=2333333366662>2$O>33665>->>2233333333333,O>3366",
"2$ #=>,>=236663>O=$$$33363622%O=2333322233564>>336",
"2>$$OO$O$2333333$ O O>33333699OO2232>=>2369288=336",
">=>=O Oo=>236632=O$%66>2333239OO=>32>233367,9y;,33",
"2$oOO#$OO$=>9q2=$o=29q$2332=26= O33363333372$>=>33",
"32$O$>2-=O  $-===$=692O2333==2> $233333689rw@o$=23",
"369O>33332=$600wyt>>>O$233,$$,2$O=>233369>>$ $===2",
"669O,33332*23338t92#O =333>$=26>OO$=2,,=$=>  =2=$2",
"369O233633>3336966,  O2363,=>9w>$OOOO O>632% =32,3",
"399$33663333339w33>o $23332>6,9>$OOO $,22w6>O$>233",
"6q=>,3663333239133,$o$>2363398$=OO>>$232$6w3=O$*33",
"w6@33366332>=;=2333= o$2333662O o$22=23>>ww3=  =,3",
"6o#3333333==$$-3332= o6:2233>$O $=32>33>q96>$  O$>",
"X =223332>=969q633>$->08OO==O  O$$>,2-==33>$O$=OO ",
"$$O2>222=$1yyy7333>#96972>>6- $6$OO$$o#$$@OO$22,,>",
"=$O32>>>>1www63333>#95633336$$9w9w>ooO-38O $>33223",
"2=O233699993333333>+9333632=$663369>OO>9w>O$,33>23",
"3>$*,333333363333,=O$,=2332=2322336,O$>6w=o$>3>=33",
"32>$O=:,333332-32%$o O2333,23>>22333> o%:O  O>3673",
"222=$  O==:22$*==$$oO2333333,>>=,3333O$>>=OO$%6723",
"<$>$O#Oo  o$o $$#O  <3363332>$#=3333,%2332$o>29>>2",
"6$o $2>$  OO  O     =333333>$ o=2333>23332$ >3q222",
"3= $233>$O>>%$>99$ $===233>#O=*O&2>2333333>O>36333",
"2$*233632%=2223690=O#%2363=o=892=>236666332$>36366",
">$,333363,333333392 >33336==363333333666633=O23666",
"3%>333333363336333>O233666*,333666366333332*O23666",
"3>$>3333333>23333332:33666$$,33666366632==,O>36666",
"33>$$=222>2=$2339669*63636= >6363339w33=O==O466363",
"3566OO$=O>33=>337229*636692o2733338w>$>Oo$$O663333",
"66396#$$ $>33336398=$336692O$6266ww>$$O==OO 366=23",
"6636we>OO O=3333669$@336666$ O$69w>$$ o>>XOOO>O=33",
"66339y>O>-$O=>,62O*$O>33339= $=>w>$$$O2$@=2,# O>33",
"663268O79<OOO.=$$>32#*2333>=O$229=$$$$q223332>O$>3",
"663226%99>->$ $22332$ ,332>2=$2362$$O>733333,>=O=3",
"6636$O=4633>$=633632$ >332233>>32=$$O93333<$=,2$$6",
"66337o@232>$=7633332=OO,33333323>$==24363,$$233$$6",
"3326w> =>$O>w43333332=O$3363332=$69634366%$>333:*6",
",>$O$O O@ $w73333>>36>$o-23222$O$92333666$$2333,*2",
" O=-$O 66$$33332=$>32=Oo O=$$$#2273666666:=3363,#O",
">2232$O=4==6363:O=23,O26,>>>=O#66633366633,>333, =",
"333332$ O$74332#=233,Oq963339$O233,333663333333>O2",
"6333333>=693332=2333,$>336332,$=3>O=3366333336,$66",
"663783392O96332233332=O23363262%=O$,3666333332$@93",
"3633w67w=OO$-66332>32$O23332364% O13333333-23,O#33",
"36236wt=$2,$ $$2=$<2#o:3332$234$OO$2233-2=$23> O>3",
"37>29w6$>62%$=#=#>>$$>36632O>32#$*$$$>2>OO$32$OO=3",
"369-y=o=332,336w9$ >w63663>o$<$#>233>>$oo$$-*OO=$2",
"32=>$$=23333333669>6633663-  $763333366$ $$$OO>322",
"32O=->333366666336>2666663=O>6663366366>2w> $>3333",
"3=>433333666666633=O236666%>863366663678666$O23366"
};
