/* XPM */
static char *result[] = {
/* columns rows colors chars-per-pixel */
"50 50 226 2 ",
"   c #7B272C",
".  c #7F2E33",
"X  c #7D3138",
"o  c #9C1E1F",
"O  c #AC191E",
"+  c #A7171E",
"@  c #B5191E",
"#  c #9D201C",
"$  c #A2211F",
"%  c #9C1D23",
"&  c #9C1E2B",
"*  c #9D1521",
"=  c #991E30",
"-  c #8E1A27",
";  c #AB1622",
":  c #A41D24",
">  c #AC1C24",
",  c #A41C28",
"<  c #AB1E2B",
"1  c #B31D24",
"2  c #BB1B23",
"3  c #B31D2A",
"4  c #BC1C2A",
"5  c #B21722",
"6  c #AB1E31",
"7  c #B91E30",
"8  c #8D262B",
"9  c #822C2E",
"0  c #8A2C2D",
"q  c #872426",
"w  c #93252C",
"e  c #9C242C",
"r  c #952627",
"t  c #9A312D",
"y  c #8B2C32",
"u  c #8C2F3A",
"i  c #862A31",
"p  c #9C2433",
"a  c #932B32",
"s  c #9C2932",
"d  c #932938",
"f  c #8F3435",
"g  c #893439",
"h  c #953233",
"j  c #9C333A",
"k  c #9A3535",
"l  c #A32226",
"z  c #AC2225",
"x  c #A3242B",
"c  c #AA232B",
"v  c #A52A2C",
"b  c #AC2B2C",
"n  c #B42424",
"m  c #BC2323",
"M  c #B4232B",
"N  c #BA232B",
"B  c #BD2B2C",
"V  c #B8292A",
"C  c #AB2531",
"Z  c #A52C34",
"A  c #A52D38",
"S  c #B22333",
"D  c #B32A32",
"F  c #BD2D33",
"G  c #B82132",
"H  c #A4333A",
"J  c #A7323A",
"K  c #BF3033",
"L  c #B7353B",
"P  c #C51F1F",
"I  c #C4241E",
"U  c #C6291E",
"Y  c #CB251E",
"T  c #C21B26",
"R  c #CA1F28",
"E  c #C42524",
"W  c #CC2524",
"Q  c #C52B25",
"!  c #CC2A25",
"~  c #C4252A",
"^  c #CC252A",
"/  c #C42B2B",
"(  c #CD2A2A",
")  c #D22525",
"_  c #D12A27",
"`  c #D4262A",
"'  c #DC272C",
"]  c #D22A2B",
"[  c #DB2A2E",
"{  c #DB2527",
"}  c #CB312D",
"|  c #C73029",
" . c #D2312C",
".. c #DC302E",
"X. c #C52430",
"o. c #CA2532",
"O. c #C52D31",
"+. c #CC2B33",
"@. c #CB2D3A",
"#. c #CA2B3E",
"$. c #DD2732",
"%. c #D42C33",
"&. c #DB2C33",
"*. c #D12B3C",
"=. c #DC2D3B",
"-. c #D22330",
";. c #C43232",
":. c #CC3232",
">. c #C7363A",
",. c #D33233",
"<. c #DA3334",
"1. c #D3333D",
"2. c #DC343B",
"3. c #D43C3A",
"4. c #E2262B",
"5. c #E32A2F",
"6. c #E22B33",
"7. c #E72B38",
"8. c #EB2B38",
"9. c #E13335",
"0. c #E4333D",
"q. c #E13A3F",
"w. c #E8373F",
"e. c #F0323C",
"r. c #92413E",
"t. c #982F40",
"y. c #923F42",
"u. c #AA3340",
"i. c #A43844",
"p. c #B03B41",
"a. c #C72E40",
"s. c #CA3742",
"d. c #D33443",
"f. c #DB3543",
"g. c #D13B44",
"h. c #DB3B44",
"j. c #DB364D",
"k. c #D6394A",
"l. c #D93C4A",
"z. c #CA3F52",
"x. c #E43542",
"c. c #E43A4B",
"v. c #E73945",
"b. c #F0324B",
"n. c #8A474A",
"m. c #984548",
"M. c #88504F",
"N. c #954951",
"B. c #99585A",
"V. c #885752",
"C. c #A4424C",
"Z. c #A54A4F",
"A. c #B94248",
"S. c #A84A54",
"D. c #B44C54",
"F. c #AC5D56",
"G. c #9E5D65",
"H. c #B85862",
"J. c #9C6062",
"K. c #A96668",
"L. c #BA696B",
"P. c #AB6B73",
"I. c #AC7474",
"U. c #BA767B",
"Y. c #C8434E",
"T. c #D64344",
"R. c #D94442",
"E. c #DC4A4A",
"W. c #DD434E",
"Q. c #D74454",
"!. c #D24B5A",
"~. c #D5525A",
"^. c #E34444",
"/. c #E1444D",
"(. c #E84C4E",
"). c #E2514E",
"_. c #EE4955",
"`. c #E55352",
"'. c #E85759",
"]. c #F4555A",
"[. c #F45B5C",
"{. c #F95458",
"}. c #F34D59",
"|. c #D95D65",
" X c #D85F70",
".X c #C65D64",
"XX c #F34B65",
"oX c #E95764",
"OX c #EA5A6A",
"+X c #FE576B",
"@X c #F65869",
"#X c #E55C75",
"$X c #F75976",
"%X c #C86B6A",
"&X c #D6676B",
"*X c #C16D70",
"=X c #D66774",
"-X c #CC737C",
";X c #C67577",
":X c #D5737C",
">X c #D77479",
",X c #E6666B",
"<X c #FB6666",
"1X c #E46472",
"2X c #ED6A76",
"3X c #E67C7F",
"4X c #FA7B7E",
"5X c #F06978",
"6X c #BD7581",
"7X c #D37D84",
"8X c #D67985",
"9X c #C47D82",
"0X c #EC7786",
"qX c #B68088",
"wX c #C48889",
"eX c #D58084",
"rX c #CD9999",
"tX c #D08F97",
"yX c #F9858C",
"uX c #FF9899",
"iX c #EA8F98",
"pX c #E29FA7",
"aX c #EAADB3",
"sX c #F6B5BD",
"dX c #E5ABAC",
"fX c None",
/* pixels */
"fXfXfXfXfXfXfXfXfXfXfXfXfXfXfXfXfXfXfXfXfXfXfXfXfXfXfXfXfXfXfXfXfXfXfXfXfXfXfXfXfXfXfXfXfXfXfXfXfXfX",
"fXfXfXfXfXfXfXfXfXfXfXfXfXfXfXfXfXfXfXfXfXfXfXfXfXfXfXfXfXfXfXfXfXfXfXfXfXfXfXfXfXfXfXfXfXfXfXfXfXfX",
"fXfXfXfXfXfXfXfXfXfXfXfXfXfXfXfXfXfXfXfXfXfXfXfXfXfXfXfXfXfXfXfXfXfXfXfXfXfXfXfXfXfXfXfXfXfXfXfXfXfX",
"fXfXfXfXfXfXfXfXfXfXfXfXfXfXfXfXfXfXfXfXfXfXfXfXfXfXfXfXfXfXfXfXfXfXfXfXfXfXfXfXfXfXfXfXfXfXfXfXfXfX",
"fXfXfXfXfXfXfXfXfXfXfXfXfXfXfXfXfXfXfXfXfXfXfXfXfXfXfXfXfXfXfXfXfXfXfXfXfXfXfXfXfXfXfXfXfXfXfXfXfXfX",
"fXfXfXfXfXfXfXV.. 0 a 8 0 f 0 0 h 0 9   X fXfXfXfXfXfXfXpX. g u d d u y 0 0 0 X rXfXfXfXfXfXfXfXfXfX",
"fXfXfXfXfXfXfXr.r : 3 < , x x e % c c & u tXfXfXfXfXfXfXiX- & , 3 3 z z z @ > x eXfXfXfXfXfXfXfXfXfX",
"fXfXqXN.S.Z.k k : N o.~ V B F ;./ / 2 M & t.C.P.fXfXK.i.J , 3 +.+.,.:.>.,.( @.>.p.C.C.C.S.S.n.wXfXfX",
"fXfX6Xt.= & x l O E ^ ( / / ;./ | W ^ 5 > e w S.fXfXS.v l > 1 :.%.<.:.,.%.+.s.L D , < < 6 x 8 U.fXfX",
"fXfX8Xt.S #.a.>.:.( W ^ ( Q ! Q Q ! ] R N M , H *X:XZ c M m m / :.^.(._._.'.uXfX,Xa.a.#.*.G s U.fXfX",
"fXfX-X& G k.1.h.q.<.) ) _ W ) ! U U _ E ^ T + , r v # $ B / Q | O./.+X+X$X XfXfXuXz.Q.l.c.3 * ;XfXfX",
"fXfX.X, 4 c.2.2.&.<.[ { ) Y { ) ! U ! ] ' -.@ n m O z O ~ ] | 3.g.W.XXXX$X#XfXfXfX>X5Xa.j.o.D %XfXfX",
"f k x ; X.c.=.` ) [ [ { Y Y ) Y  .Y ) ] [ ^ E / ~ E / / W %.] [.].l.*.j.$X#X0X8XfXfXfXz.j.c.d.F J j ",
"Z & < 4 T =.0.&.` { W ! _ W W W W ! W { ) ! ! E E W ( ( ( ( ] {.[.h.o.f.XX$X$X=XaXfXfXH.!.g.d.+.> : ",
"; ; ;.3.f.v.x.$.] ! m | | ! ) ) ] ( ] ( ! ( | ! ` { W ( ( ~ ^ 2.,.| E %.f.d.OX=XsXfXfXfXfX&Xl.1.> : ",
"5 3 *.f.7.x.0.' E ( | B Q ! _ ) %.~ E W W E ! ! W ) ! ( ( ( ( E ! ! ! ] ( T +X=XsXfXfXfXfX=XW.^ O : ",
"> 3 *.x.v.w.9.[ ) _ ! ! ( ( ,._ ( ( ! ^ ^ ! W ( _ ` _ W _ ^ ( ` _ ) } :.E %.].1XaXfXfXfXfX:X/.` 5 z ",
", ; @.f.v.v.9.] Y ) W ! / ( %.( ^ E W W W W W W _ ^ ( W ] W ` W ` ] ( ( %.W +X XsXfXfXfXfX=Xh.%.O : ",
"3 ; @.f.0.v.0._ ) ) W ^ W W  .! ( ( ! ! ! ( _ ! ( ! ( ! ( W ! W / ,.W W } V @X1XfXfXfXfXfX1Xg.O.> > ",
"; O ~ O.%.q.x.%.^ _ ^ ] _ ! _ U ! ! ( ! ! ! ! ! ! W ( W _ W ( Q / / W _ / K OX&XfXfXfXH.~.a.:.O.> , ",
"n $ B / o.f.x.=.o.+.W _ _ ) _ ! ! ! ! ! ! _ ! W ! ! ) W _ ! _ ( ( E ! ] ( O.5X=XfXfXfXA.l.x.=.o.> > ",
"o $ z M ~ c.x.7.2.<.^ ` ) Y U U ! ! _ _ _ ! ! ! Y U ! W _ ! ] _ ! ( ` ] ^ G fXfXfXiXyXg.x.$.-.R c x ",
"t t r + 4 x.v.v.q.2.] ` ) Y Y E ! W W W ! W W W _ W _ ^ _ ! ] _ U _ ` ` o.L fXfXfX&XoXf.x.( R V x w ",
"*XL.A.> 4 =.=.7.<.,._ [ ] ) ! Q _ _ _ ! _ ! ` ! ! W ( W ] ) _ ! E ! ^ %.j.Y.fXfXyXoX}.&.1./ / s.%X;X",
"fXfX=X, 4 -.` %.! ] ) { _ ! ( / ( W (  .^.^.} ! E ! ,.I ^  .W ! ! ! ) h.OX1XQ.j.c.v.f.^ B z $ &XfXfX",
"fXfX-XZ 3 o.+.^ W ! ) ) ` ` ( ( ,.m ( ).] R.R.| / Q / V :.m ( Q !  .! g.3X0Xd.b.b.7.x.+.V l b ;XfXfX",
"fXfXU.d C N 1 / ! ! ) ) ^ ( +.O./ :.:.[.;.:.;.>.;.;.;.3.).:.g.Q U ! ;.~.fXfXY.0.4.8.=.2 D x r ;XfXfX",
"fXfXqXg J , > B / ( ! ` W ^ %.( :.n 3.`.B n `.`.T.[.).E.<X`.E.} U ! / ,XfXfX~.` 7.$.o.; , j 0 U.fXfX",
"fXfXfXfX7Xa Z b n / E ( ^ ^ %.( +.:./ <X>.R.).'.'.R.).'.R.(.[.Q ( <.=./.4X4Xf.%.%.5 O.C s 7XfXfXfXfX",
"fXfXfXfXfX  8 x : V / ( _ W ( W W ( ( ,.^.} / | | V / ( m :.:./ ( 2.0.0.%.*.=.=.T M v - 9 fXfXfXfXfX",
"fXfXfXfXfXJ.H.j x M V ~ ( _ _ ! <.E ( ( ( ( ,.E ( ! (  .( ! ] ( +.,.8.e.$.<.%.O.1 b 0 F.K.fXfXfXfXfX",
"fXfXfXfXfXfXfXC.w C z m E W ] [ { ] _ ( E ! P W W Q E E ( W [ %.%.&.6.6.' %.4 3 b r m.fXfXfXfXfXfXfX",
"fXfXfXfXfXfXfXJ.u i.x M O.Q _ [ ' Y ] Q | | ( ) ) { W E  .] [ 5.' 5.5...&.O.> C u.u B.fXfXfXfXfXfXfX",
"fXfXfXfXfXfXfXfXfX:Xp c 1 2 ( W 6.] ,.! / Q ! ) ) ) { W ] ] 5.5.5.4.[ ,.4 B C e 8XfXfXfXfXfXfXfXfXfX",
"fXfXfXfXfXfXfXfXfXrXa C + 1 / ^ ] $.$.^ _ ( W _ W W _ ) [ ] [ [ [ $.' ` ; % A d tXfXfXfXfXfXfXfXfXfX",
"fXfXfXfXfXfXfXfXfXfXwX>Xe > V ~ ` &.&.` [ _ W ( ! W [ ] $.[ 6.&.<.%.` X.M x >X9XfXfXfXfXfXfXfXfXfXfX",
"fXfXfXfXfXfXfXfXfXfXfXfXw * x > X.&.&.6.' ` W W _ _ [ [ 6.[ =.&.%.4 G c * w fXfXfXfXfXfXfXfXfXfXfXfX",
"fXfXfXfXfXfXfXfXfXfXfXfXB.D.H C 4 ^ -.$.6.' { _ %._ 6.[ 4.6.7.R +.N c A D.N.fXfXfXfXfXfXfXfXfXfXfXfX",
"fXfXfXfXfXfXfXfXfXfXfXfXfXfXH.p c 3 2 %.$.[ 5.5.[ [ 5.[ $.&.=.T > c x .XfXfXfXfXfXfXfXfXfXfXfXfXfXfX",
"fXfXfXfXfXfXfXfXfXfXfXfXfXfXI.u Z : O @.%.' 6.5.4.4.9.[ %.&.%.5 c s u K.fXfXfXfXfXfXfXfXfXfXfXfXfXfX",
"fXfXfXfXfXfXfXfXfXfXfXfXfXfXfXfXeXt v M m ] 6.6.4.4.6.&.%.2 4 < p eXdXfXfXfXfXfXfXfXfXfXfXfXfXfXfXfX",
"fXfXfXfXfXfXfXfXfXfXfXfXfXfXfXfXfX9 8 v > ^ ` 4.5.6.` %.~ z D r y fXfXfXfXfXfXfXfXfXfXfXfXfXfXfXfXfX",
"fXfXfXfXfXfXfXfXfXfXfXfXfXfXfXfXfXI.L.h x V E ] ` [ ^ %.M x k L.I.fXfXfXfXfXfXfXfXfXfXfXfXfXfXfXfXfX",
"fXfXfXfXfXfXfXfXfXfXfXfXfXfXfXfXfXfXfXg t x 1 @ ^ &.2 ; C 8 g fXfXfXfXfXfXfXfXfXfXfXfXfXfXfXfXfXfXfX",
"fXfXfXfXfXfXfXfXfXfXfXfXfXfXfXfXfXfXfXM.m.t e O B N < x j m.M.fXfXfXfXfXfXfXfXfXfXfXfXfXfXfXfXfXfXfX",
"fXfXfXfXfXfXfXfXfXfXfXfXfXfXfXfXfXfXfXfXfX;Xr v M > x A L.fXfXfXfXfXfXfXfXfXfXfXfXfXfXfXfXfXfXfXfXfX",
"fXfXfXfXfXfXfXfXfXfXfXfXfXfXfXfXfXfXfXfXfXfXq w % c a   wXfXfXfXfXfXfXfXfXfXfXfXfXfXfXfXfXfXfXfXfXfX",
"fXfXfXfXfXfXfXfXfXfXfXfXfXfXfXfXfXfXfXfXfXfXfXfXA e 7XfXfXfXfXfXfXfXfXfXfXfXfXfXfXfXfXfXfXfXfXfXfXfX",
"fXfXfXfXfXfXfXfXfXfXfXfXfXfXfXfXfXfXfXfXfXfXfXfXq u fXfXfXfXfXfXfXfXfXfXfXfXfXfXfXfXfXfXfXfXfXfXfXfX",
"fXfXfXfXfXfXfXfXfXfXfXfXfXfXfXfXfXfXfXfXfXfXfXfX7X*XfXfXfXfXfXfXfXfXfXfXfXfXfXfXfXfXfXfXfXfXfXfXfXfX"
};
