/* XPM */
static char *d6e2f2d21bb3452ea0b87635b007e7b1VKRunmuzdeKhYCnG[] = {
/* columns rows colors chars-per-pixel */
"47 47 141 2 ",
"   c None",
".  c #060200",
"X  c #090701",
"o  c #0D0400",
"O  c #0A0802",
"+  c #0C0C06",
"@  c #150F03",
"#  c #100C04",
"$  c #180A00",
"%  c #121107",
"&  c #161204",
"*  c #1F1503",
"=  c #12120A",
"-  c #14150D",
";  c #1B170D",
":  c #19180C",
">  c #181811",
",  c #1A1A12",
"<  c #1E1D13",
"1  c #1C1C15",
"2  c #251000",
"3  c #2C1A01",
"4  c #341900",
"5  c #211C10",
"6  c #201E14",
"7  c #3D2201",
"8  c #37280B",
"9  c #242415",
"0  c #2C2412",
"q  c #2B2417",
"w  c #202119",
"e  c #27271E",
"r  c #292618",
"t  c #2D2718",
"y  c #28281F",
"u  c #2D291C",
"i  c #2F2A1E",
"p  c #302D1C",
"a  c #292A22",
"s  c #2E2B20",
"d  c #2F2E23",
"f  c #2D2E24",
"g  c #383424",
"h  c #3A3727",
"j  c #32332A",
"k  c #3E392C",
"l  c #393931",
"z  c #3A3A31",
"x  c #3C3C31",
"c  c #452A03",
"v  c #4D2C00",
"b  c #4D330E",
"n  c #553203",
"m  c #663E04",
"M  c #423E2E",
"N  c #5D4014",
"B  c #724A06",
"V  c #7B5418",
"C  c #5A4525",
"Z  c #424133",
"A  c #464133",
"S  c #454334",
"D  c #464535",
"F  c #47463D",
"G  c #484639",
"H  c #4E4A39",
"J  c #4E4B3F",
"K  c #584E33",
"L  c #51503D",
"P  c #54523F",
"I  c #725A31",
"U  c #4F4E42",
"Y  c #525041",
"T  c #545344",
"R  c #585342",
"E  c #5A5742",
"W  c #5A5643",
"Q  c #5A5746",
"!  c #57554B",
"~  c #57564C",
"^  c #5A564B",
"/  c #5E5B4B",
"(  c #635B41",
")  c #615F4D",
"_  c #64604D",
"`  c #65614F",
"'  c #776644",
"]  c #636154",
"[  c #686651",
"{  c #6A6751",
"}  c #696753",
"|  c #686654",
" . c #6E6A55",
".. c #6B6759",
"X. c #6B675A",
"o. c #6B6A5D",
"O. c #797354",
"+. c #74705D",
"@. c #77735F",
"#. c #726F60",
"$. c #797660",
"%. c #7A7767",
"&. c #7D7962",
"*. c #7D7C62",
"=. c #7B7A72",
"-. c #885B10",
";. c #996219",
":. c #A06E12",
">. c #B27F18",
",. c #B17A2C",
"<. c #9E7D45",
"1. c #837856",
"2. c #837F66",
"3. c #807C70",
"4. c #EFAB1A",
"5. c #C48E24",
"6. c #DEA023",
"7. c #E3A733",
"8. c #838061",
"9. c #898366",
"0. c #878468",
"q. c #868569",
"w. c #8C896C",
"e. c #908B6A",
"r. c #938C6D",
"t. c #9A916C",
"y. c #838170",
"u. c #848170",
"i. c #8B8974",
"p. c #8C897A",
"a. c #8C897D",
"s. c #959173",
"d. c #909076",
"f. c #969276",
"g. c #908D81",
"h. c #939386",
"j. c #999781",
"k. c #9D9C81",
"l. c #A5A489",
"z. c #A1A09B",
"x. c #BEBEB9",
/* pixels */
"                                          ! +.g.                                              ",
"                                        t d s : q                                             ",
"                                        q l f y i d q                                         ",
"                                        r l f f f a l i                                       ",
"                                        r l f a e w w f i                                     ",
"                      q t               r x a w > - - > e i               @ k                 ",
"                      ; @               d l w > - - = = = < q             X ;                 ",
"                    t % r             D s l > - = 9 l Z j = :             % O                 ",
"                    ; O A           L J f l - - p E $.*.$.] i t           : 1 r               ",
"                    % = }         ) #.o.f j - p _ 2.q.q.w.d.%.D           i w :               ",
"                  t # > ! g.a.A +.u.i.o.f f 5 Y 2.q.w.f.r.w.i.q.P     3.) l j 6               ",
"                  t # w f J G y.p.i.i.o.a a g $.q.d.q.d.k.d.q.y.+.g D G F j Z s               ",
"        t           % > 1 1 ~ p.u.i.p.o.e j Y q.w.$.i.l.l.k.w.E j y y a j f j 6               ",
"        D M         & + > - o.u.$.i.p.o.9 l  .q.$.*.k.l.l.l.i.9 9 w w e j a > r               ",
"      k ) E           ; # + o.u.2.i.p.o.9 Z *.*.*.w.j.j.j.l.d.- w w 1 - 1 > ;                 ",
"      g ) E             & O +.%. .i.i.o.9 H 2.8.9.e.q.&.q.j.h.9 - - - + O r                   ",
"      D } P               i X.%.+.w.i.+.p E 8.w.s.e.&.&.q.j.k. .= > > i                       ",
"      L }                 g ^ +.2.9.w.*.E 2.t.t.t.e.+.+.y.s.k.q.+.| &.                        ",
"      R }                 r * 2 7 N 1.r.f.r.1.I N v 4 # $ 0 f.8.*.} }                         ",
"      L }                 q 3 B :.n b r.r.' 7 7 B :.:.m 2 o r.8.O.} E                         ",
"      T }                 t 7 5.7.-.c ' 1.N v B 5.4.4.5.n o r.1.O.} E                         ",
"      S +.E               t c 5.7.:.n b I n m ;.6.4.4.6.B 2 t.1.O._ E                         ",
"      S #.}               t c :.5.-.n c b N m -.5.6.6.>.v 8 r.O. .Q P                         ",
"      R _ ) E             M K c m v c c b n n n B -.V n 3 ( q. .| Q P                         ",
"        G #.} P             +.K C 3 7 7 c 7 b C C N N C ( 2.*.| _ Q P                         ",
"        D } } R             #.$._ $ 2 3 3 3 8 ( O.O.O.1.9.q. .Y Y J E                         ",
"          G x T E           _ +.Y o $ $ 2 2 * Y +.$.2.2.2.*._ E E J M                         ",
"          M S S L E         _ | Z o o o $ $ $ F o._  .$.$.| / / / J                           ",
"              k L R P       ! | 9 . o o o o o Z | / / _ _ / / / ^ D                           ",
"                k R         A ^ = . o o o . . j ] / / / / / ] ! k                             ",
"                  A           M L d . . . . . a ~ ~ / E / | G                                 ",
"                  k               3.! + + . . 5 F ~ ~ H E U g.                                ",
"                  t g E             ! j g 3 3 3 * p F 9 5 y a.                                ",
"                    d < &         X.J H b V <.I 8 Y o.e Y %.g                                 ",
"                    X + > }     E G /  .N ,.:.;.N _ %.H F =.!                                 ",
"                      % w ^ T i i E H $.B ,.;.;.N  .u.] E / | g                               ",
"                      k > > 1 e 5 p H +.b ;.;.V C $.u.| _ Z K i                               ",
"                        : = 1 a 5 H H _ 8 b N c C %.%.] E p * * &                             ",
"                        @ > e 1 U z.F l 9 0 0 9 Z ] / Y F a 9 p 6                             ",
"                          X > j x.z.] l 9 j l j F Y Z Z F f a f a &                           ",
"                            : l x.=./ H e a a l F Z F Y ~ l w a w X                           ",
"                              ; #.X.E l 5 w > ~ ] l Y / ] l # # % k                           ",
"                                  &.s 5 > e w =.p.g p F l x ) M                               ",
"                                  X.< - = - a z.h.e > 1 - < a.                                ",
"                                    6 1 > + i j.y.y 1 > = O                                   ",
"                                    % a 1 O & P k : a w - X                                   ",
"                                    d w > % t     X # > > D                                   "
};
