/* XPM */
static char *player1706039366[] = {
/* columns rows colors chars-per-pixel */
"47 47 141 2 ",
"   c None",
".  c #0E0902",
"X  c #150C01",
"o  c #120F08",
"O  c #1E1202",
"+  c #121109",
"@  c #17140D",
"#  c #14140E",
"$  c #1B170B",
"%  c #19180F",
"&  c #1D190E",
"*  c #191912",
"=  c #1B1C15",
"-  c #1F1E14",
";  c #1E1E18",
":  c #2A1703",
">  c #241C0B",
",  c #381F01",
"<  c #211E15",
"1  c #302006",
"2  c #3F2707",
"3  c #262217",
"4  c #202019",
"5  c #23221A",
"6  c #25241B",
"7  c #22221C",
"8  c #25261F",
"9  c #29291C",
"0  c #2E2A1D",
"q  c #2D2A1E",
"w  c #3A2C13",
"e  c #302919",
"r  c #312C1E",
"t  c #2B2B23",
"y  c #2D2D24",
"u  c #2D2E27",
"i  c #302D21",
"p  c #322F23",
"a  c #312F25",
"s  c #333122",
"d  c #333128",
"f  c #313229",
"g  c #35362E",
"h  c #3B3728",
"j  c #3D3A2B",
"k  c #3C3C34",
"l  c #3D3D34",
"z  c #3E3E34",
"x  c #472E0B",
"c  c #4E3004",
"v  c #56350A",
"b  c #4E3616",
"n  c #403D2F",
"m  c #5D421B",
"M  c #66400C",
"N  c #714B0F",
"B  c #7A551E",
"V  c #5A472A",
"C  c #444132",
"Z  c #444336",
"A  c #474336",
"S  c #464436",
"D  c #484638",
"F  c #49473B",
"G  c #49483F",
"H  c #4F4B3C",
"J  c #594F36",
"K  c #715A34",
"L  c #4F4C41",
"P  c #514F44",
"I  c #535140",
"U  c #535143",
"Y  c #555242",
"T  c #575444",
"R  c #565445",
"E  c #5A5644",
"W  c #5A5745",
"Q  c #5A5847",
"!  c #58564C",
"~  c #58574D",
"^  c #5A574C",
"/  c #5E5B4C",
"(  c #635B43",
")  c #615F4F",
"_  c #64604E",
"`  c #766646",
"'  c #656250",
"]  c #636155",
"[  c #686652",
"{  c #6A6753",
"}  c #686655",
"|  c #6A6754",
" . c #6E6A56",
".. c #6B675A",
"X. c #6C6758",
"o. c #6B6A5D",
"O. c #736F5D",
"+. c #787255",
"@. c #76725F",
"#. c #727060",
"$. c #787560",
"%. c #797667",
"&. c #7C7861",
"*. c #7C7B62",
"=. c #7A7971",
"-. c #875B17",
";. c #98621F",
":. c #9F6E19",
">. c #B17E1E",
",. c #B07930",
"<. c #9D7C47",
"1. c #827757",
"2. c #827F61",
"3. c #827E66",
"4. c #807C70",
"5. c #827F70",
"6. c #C38D29",
"7. c #DD9F28",
"8. c #EFAA20",
"9. c #E2A636",
"0. c #888266",
"q. c #868369",
"w. c #858469",
"e. c #8F8A6A",
"r. c #8B886C",
"t. c #928B6D",
"y. c #99906C",
"u. c #838070",
"i. c #8A8873",
"p. c #8F8F75",
"a. c #8B877B",
"s. c #8B8879",
"d. c #948F72",
"f. c #959175",
"g. c #98967F",
"h. c #9C9B7F",
"j. c #8F8C80",
"k. c #929285",
"l. c #A09F9A",
"z. c #A4A388",
"x. c #BDBDB8",
/* pixels */
"                                              a.$.^                                           ",
"                                            q < a d r                                         ",
"                                        q d a t f k q                                         ",
"                                      p k u f f f k q                                         ",
"                                    y f 8 8 t u f k q                                         ",
"                n $               p t - = = = t u k q               r q                       ",
"                < o             q 5 * * * = = - 8 k d               $ <                       ",
"                + %             - * g Z l 9 * = 4 n a F             q % r                     ",
"              q 7 -           r s ] @.*.$.E s = = k f L I           Z o <                     ",
"              - 8 p           F %.p.e.w.q.3.' s - g f o.#.)         } = %                     ",
"              6 g k ) 4.    Y w.i.r.y.f.r.w.3.I 5 f f o.i.u.$.Z a.j.! ; @ r                   ",
"              a Z g G F D j @.4.w.p.k.p.w.p.w.$.j u u o.i.i.s.4.F L f 8 @ r                   ",
"              6 g f g u u y g E r.k.z.z.i.$.r.w.Y g y o.s.i.u.s.! 5 7 ; *           r         ",
"              q ; u g t 8 8 9 9 i.z.z.z.h.*.$.q. .k 9 o.s.i.$.u.o.= ; # &         C F         ",
"                < ; 7 = 5 8 8 = p.z.h.h.g.r.*.*.*.Z 9 o.s.i.3.u.o.@ # <           E _ j       ",
"                  q + # = = = 9 k.h.r.@.q.e.0.2.3.H 9 o.i.i. .%.@.+ &             R ' h       ",
"                      s 4 ; % { h.g.w.&.@.t.d.r.0.J s @.i.r.@.%...p               Y } D       ",
"                        @.[ @.w.h.t.4.@.@.r.y.y.y.3.Q *.r.0.0.o.! h                  .H       ",
"                        { { @.0.f.e O @ , c m K +.t.f.t.+.m 2 : > q                 { E       ",
"                        W { +.0.t.X : M :.:.N x x ` t.t.b v :.N 1 q                 { I       ",
"                        E [ +.1.t.X v 6.8.8.6.N c m 1.` x -.9.6.2 r                 { E       ",
"                        W _ +.1.y.: N 7.8.8.7.;.M v K b v :.9.6.x r               E @.Z       ",
"                        Y Q  .+.t.w c >.7.7.6.-.M m b x v -.6.:.x r               } #.Z       ",
"                        Y ^ }  .w.( 1 v B -.N v v v b x x c M x J C             E _ ' R       ",
"                        Y ^ ' } &.3.( V m m V V b x x x 2 1 V J O.            Y } O.F         ",
"                        Q H I I  .w.0.1.+.+.+.( w : 1 1 : O _ @.#.            E [ [ F         ",
"                        C L Q W _ *.0.3.3.$.@.I > : : O O X I @.'           E R k F           ",
"                          L / / / } $.@. .) o.G O O O X X X Z [ '         E Y Z Z C           ",
"                          F ^ / / / _ _ / / } Z X X X X X . 8 [ ^       Y Y Y n               ",
"                            j ^ ] / / / / / ] g . . X X X . * ~ Z         E n                 ",
"                                F } / Q / ~ ~ u . . . . . f I C           D                   ",
"                                j.P E H ~ ~ G 3 . . # # ^ 4.              n                   ",
"                                s.u 3 9 G s > 1 1 1 j g !             E h r                   ",
"                                h %.I t o.I w K <.B b H P ..        & 5 f                     ",
"                                ! =.G H %._ m ;.:.,.m  ./ F E     { 5 # o                     ",
"                              h } / Q ] u...m ;.;.,.N $.H E p y E ~ 8 #                       ",
"                              s J Z _ } w.@.V B ;.;.b @.H s 3 t 7 ; 5 j                       ",
"                            & > > s R ] %.%.V x m b w _ H H 3 u 7 * -                         ",
"                            8 s 8 u L U / ] Z 8 e e 9 z G l.P 5 t 5 $                         ",
"                          * u s u u L Z Z U G g k g 9 k ] l.x.g ; o                           ",
"                          + 8 u 8 k ~ I L Z L k u u y H / =.x.k <                             ",
"                          n % @ @ k } / P k ] ~ - 8 3 k Q ..#.<                               ",
"                              C ) k k G s h s.=.t t ; 3 a *.                                  ",
"                                a.5 = 7 ; t k.l.t = % = 5 X.                                  ",
"                                  + * ; 5 u q.k.a # < 7 6                                     ",
"                                  o = 8 u < n Y @ + 7 u %                                     ",
"                                  F ; ; @ o     r # ; t d                                     "
};
