/* XPM */
static char *result[] = {
/* columns rows colors chars-per-pixel */
"50 50 256 2 ",
"   c #343D0E",
".  c #333434",
"X  c #761E16",
"o  c #51320E",
"O  c #72320D",
"+  c #452D29",
"@  c #573637",
"#  c #4C3131",
"$  c #703632",
"%  c #541716",
"&  c #325031",
"*  c #3A4912",
"=  c #6C4100",
"-  c #724E0D",
";  c #7C690F",
":  c #495739",
">  c #59543D",
",  c #524A30",
"<  c #724D2F",
"1  c #6A6730",
"2  c #5E612C",
"3  c #1B3A57",
"4  c #153D4B",
"5  c #343B4D",
"6  c #283B57",
"7  c #363C5A",
"8  c #283B49",
"9  c #163B65",
"0  c #2F3E64",
"q  c #4A374C",
"w  c #6F3844",
"e  c #413B61",
"r  c #254356",
"t  c #364758",
"y  c #364C4A",
"u  c #1B4969",
"i  c #1B4978",
"p  c #195378",
"a  c #0C4F71",
"s  c #274667",
"d  c #354867",
"f  c #38556B",
"g  c #264979",
"h  c #364A77",
"j  c #2A567A",
"k  c #385575",
"l  c #2B536B",
"z  c #366276",
"x  c #29607F",
"c  c #2B5258",
"v  c #45464A",
"b  c #594945",
"n  c #515352",
"m  c #784948",
"M  c #704F4E",
"N  c #566654",
"B  c #756E4B",
"V  c #4B586F",
"C  c #775666",
"Z  c #47677A",
"A  c #546A71",
"S  c #72716F",
"D  c #862718",
"F  c #863A16",
"G  c #983937",
"H  c #922D2F",
"J  c #A53033",
"K  c #8F1919",
"L  c #994706",
"P  c #8A5602",
"I  c #8C530D",
"U  c #AD5413",
"Y  c #91761A",
"T  c #916D0E",
"R  c #A56901",
"E  c #AF720C",
"W  c #89472A",
"Q  c #9A5A26",
"!  c #854636",
"~  c #9A4838",
"^  c #8C542E",
"/  c #B15633",
"(  c #89752C",
")  c #87673A",
"_  c #92793A",
"`  c #916F2C",
"'  c #A86729",
"]  c #B07730",
"[  c #C6760B",
"{  c #C74F3D",
"}  c #C67939",
"|  c #CB722C",
" . c #E47B23",
".. c #AF3747",
"X. c #813F41",
"o. c #8D504D",
"O. c #B94647",
"+. c #BB4A54",
"@. c #AC514E",
"#. c #8D7252",
"$. c #AF714C",
"%. c #A85966",
"&. c #B45163",
"*. c #8C726F",
"=. c #B86268",
"-. c #B27173",
";. c #C5495A",
":. c #C75857",
">. c #D05252",
",. c #E2525D",
"<. c #CA655A",
"1. c #C86D4F",
"2. c #C45863",
"3. c #D75C67",
"4. c #CB4E61",
"5. c #E95A65",
"6. c #D66C77",
"7. c #D26B6E",
"8. c #EA6C70",
"9. c #E5775E",
"0. c #9C8C14",
"q. c #AD8701",
"w. c #98892B",
"e. c #9A9326",
"r. c #8D8636",
"t. c #92853D",
"y. c #9B9737",
"u. c #BA8637",
"i. c #AD8E2E",
"p. c #B8A530",
"a. c #9BA135",
"s. c #CB8D0A",
"d. c #EB911B",
"f. c #F8BA0B",
"g. c #F8B718",
"h. c #ECB013",
"j. c #C49629",
"k. c #D89738",
"l. c #D48A33",
"z. c #ED912E",
"x. c #DAAB35",
"c. c #D3AC2B",
"v. c #F3AA28",
"b. c #EAB826",
"n. c #F8B828",
"m. c #E6A937",
"M. c #E9B939",
"N. c #F9BA39",
"B. c #EEAA2C",
"V. c #C8AB0F",
"C. c #F8C70C",
"Z. c #EDC81B",
"A. c #FAC817",
"S. c #FAD117",
"D. c #EDC725",
"F. c #F8C827",
"G. c #FCD527",
"H. c #EAC836",
"J. c #F4C937",
"K. c #F6D539",
"L. c #EBD333",
"P. c #FCE636",
"I. c #EED61B",
"U. c #95875A",
"Y. c #918C4F",
"T. c #B38E50",
"R. c #B7A74F",
"E. c #928A6A",
"W. c #A79065",
"Q. c #A8A763",
"!. c #D69848",
"~. c #CD914B",
"^. c #EB9449",
"/. c #D9A655",
"(. c #D7B147",
"). c #E9B948",
"_. c #FAB849",
"`. c #E6B856",
"'. c #EFAC52",
"]. c #D0B36E",
"[. c #EEBB64",
"{. c #D48766",
"}. c #DCC854",
"|. c #EAC746",
" X c #ECD345",
".X c #F9D749",
"XX c #E9C659",
"oX c #F8C95E",
"OX c #ECD756",
"+X c #F8C646",
"@X c #FDE64A",
"#X c #F6E557",
"$X c #F1E952",
"%X c #D2C56D",
"&X c #E7C964",
"*X c #EAD270",
"=X c #F3E96E",
"-X c #DFE279",
";X c #1E5689",
":X c #1C5B96",
">X c #1A4B87",
",X c #254D87",
"<X c #265788",
"1X c #265B97",
"2X c #345788",
"3X c #1C669A",
"4X c #29698B",
"5X c #366888",
"6X c #286599",
"7X c #327296",
"8X c #1A75B0",
"9X c #2667A5",
"0X c #3977A8",
"qX c #287AB7",
"wX c #2D71AA",
"eX c #456989",
"rX c #4E7593",
"tX c #6A7887",
"yX c #656C81",
"uX c #497EAA",
"iX c #4D5E8A",
"pX c #297CC3",
"aX c #1D7FC6",
"sX c #947F84",
"dX c #D07680",
"fX c #3784BA",
"gX c #3188B6",
"hX c #2D81A9",
"jX c #508298",
"kX c #4B89AC",
"lX c #758FA0",
"zX c #1D84C8",
"xX c #2D8BC7",
"cX c #919090",
"vX c #A79287",
"bX c #AFAE8F",
"nX c #91A7B3",
"mX c #A8ABB5",
"MX c #AFAAAA",
"NX c #9099AB",
"BX c #D38A8E",
"VX c #D5B4B0",
"CX c #E0838B",
"ZX c #E2C3BC",
"AX c #ADB6C8",
"SX c #95B5C2",
"DX c #CEBEC1",
"FX c #B5D1D9",
"GX c #D0D0D2",
"HX c #E9D1C8",
"JX c #CDD7E7",
"KX c #FDFCFF",
"LX c #FAF7F9",
"PX c #EDE7E3",
"IX c #E9E4E1",
"UX c None",
/* pixels */
"UXUXUXUXUXUXUXUXUXUXUXUXUXUXUXUXUXUXUXUXUXUX].- Y - % I ' Q ^ - Q.UXUXUXUXUXUXUXUXUXUXUXUXUXUXUXUXUX",
"UXUXUXUXUXUXUXUXUXUXUXUXUXUXUXUXUXUXUXUXUX< t.&Xp.- /./.} P = ` ` ( #.^ W.VXUXUXUXUXUXUXUXUXUXUXUXUX",
"UXUXUXUXUXUXUXUXUXUXUXUXUXUXUXUXUXUXUXE.R.&X|.H.T c.+XR = s.K.b.J.|.H.|.[.] Q - UXUXUXUXUXUXUXUXUXUX",
"UXUXUXUXUXUXUXUXUXUXUXUXUXUXUXUXUXUX1 %X&X XH.K.I.D.J.s.N.g.C.S.A.A.F.s.E [ ] ~.#.< UXUXUXUXUXUXUXUX",
"UXUXUXUXUXUXUXUXUXUXUXUXUXUXUXUXUX2 %X}.OX.X@XD.Z.F.J.J.F.A.A.S.A.A.b.P P R q.E Y o U.UXUXUXUXUXUXUX",
"UXUXUXUXUXUXUXUXUXUXUXUXUXUXUXUXB %XOXH. X.XF.F.D.J..XK.A.A.C.C.S.A.h.s.J.H.D.J.H.oX] < UXUXUXUXUXUX",
"UXUXUXUXUXUXUXUXUXUXUXUXUXUXUX) %XOXH. X#X.XD.D.H..X.XF.A.C.C.S.A.f.F.A.g.F.n.N.N._._.'.I UXUXUXUXUX",
"UXUXUXUXUXUXUXUXUXUXUXUXUXUXUXW.oX).|..XK.L.D.H..X.XH.A.A.C.Z.A.A.A.f.A.g.h.d.d.d. . .[ ] -.< UXUXUX",
"UXUXUXUXUXUXUXUXUXUXUXUXUXUXU.*X).c.j.OX@XH.c.M.$XL.D.Z.F.D..XJ.A.A.A.g.F.v. .U U U U L < m m @ UXUX",
"UXUXUXUXUXUXUXUXUXUXUXUXUXUX_ &XoXP }.=XH.H.p.x. XH.G.b.M.c..XH.Z.C.A.F.A.b.L L U | [ I UXUXUXUXUXUX",
"UXUXUXUXUXUXUXUXUXUXUXUXUXUX; ].` = *X-XXX`.E XX|.+X'.l.o T.|.D.S.S.I.C.Z.G.n._._._.N.J.P UXUXUXUXUX",
"UXUXUXUXUXUXUXUXUXUXUXUXUXUXo - $.W ].*XT.Q O /.'.E U $.$.]. XI.C.Z.S.S.F.b.n.[ [ s.v.+X`.; UXUXUXUX",
"UXUX3 s u z UXUXUXUXUXUXUXo.o.<.1.$.~.#.G <.@.W H / 9.9.^ T.|.D.Z.F.J.c.c._._.R L O L ^.'./.UXUXUXUX",
"UXt u <X4XjXl UXUXUXUXUX*.M %.6.8.=.X ~ 8.3.:.@.7.{.6.~ O < /.R E M.j.= I O k.k._.E % UX' T.U.UXUXUX",
"lXk 4X7Xa a z r UXUXUXUXS + q %.CX6.O.>.,.5.,.3.BXo.o.%.w X.F I `.`.I ] W O Q P k._.R UXUXo.B UXUXUX",
"z l <X0Xp jXx z A UXUXUX*.q vXC o.dX..8.,.,.5.+.! @ HXHXw &.6.o.[.%X^ o.o.! Q T E ^.[.] UXUXUXUXUXUX",
"9 eXl g u j p 5XeXUXUXUX*.q q C sXw $ 6.>.J $ X.M . HXBXo.3.6./ !.u./ o.$ ! - ] L | '.'.UXUXUXUXUXUX",
"d 3 l u 3 4 4XkXV UXUXUX*.C w *.sXo.@.&.dX:.&.w @ w o.$ =.3.8.:.Q T.@.H m $ - BX$ $ } /.B UXUXUXUXUX",
"d d s k 3 r f 4 NXUXUXUXw =.=.@.o.@.@.D ..5.3.4.3.3.3.{ +.3.8.>.H O &.%.o.q . n V e @ #.#.UXUXUXUXUX",
". 6 3 3 d 5 . q UXUXUXUXw dX@.H ;.6.G ..:.>.5.5.5.8.8.J K >.>.:.&.$ w q 0 2X2XuXuXrXN + o UXUXUXUXUX",
". c Z rXZ + ! G vXUXUXUXo.-.=.D ..:.2...H J 3.8.5.8.>.K >.{ >.@.o.. q 2X:XwX9X0X0XV b - ; UXUXUXUXUX",
"N : : : , $.'.| $ UXUXLXDXm 7.-.G G ..4.4.&.4.3.J J ..<.{ / / F @ + 0 ,X9X9X9X6Xh q ! !./.`.UXUXUXUX",
"a.-X}.V.m.m.N.k.^ o.UXKXKXDX$ @.<.3.;.......H ..;.3.3.<.<.] U l.^ @ 0 2X>X<X4Xt + ^ l.v.N.H.%XUXUXUX",
"a.=XG.C.g.g.b.m.L W ! MXLXLXS w %.&.2.7.2.3.4.:.1.:.@./ ` ~.oX_.] X @ q e 7 n + /  .v.g.g.b.$XUXUXUX",
"Q.R.P.C.b.b.M.E [  ./ X.AXrXeXiXe e M %.=.1./ ' ' Y i.x.L.@X@XH.B.k.l./ G %.-.~ z.z.g.g.g.b.L.UXUXUX",
"UXe.@XS.h.c.R s.n.d. .~ 7 uX1XwX2Xh v M ~.'.k.).XX*X=X=X@XP.@X.XM.m.z.^.>.H X } z.d.v.n.b.n.I. XUXUX",
"UX( #XV.T P s.b.g.d.^.< Z 9X6X;Xi s 7 #.[.+X.X.X.X*X].Q.%X*XOX}.(.l.} 9./ J D } ^.^.P E R c.I.$XUXUX",
"UXY.=XT j.|.b.n.A.d.k.< iX:X<Xp i 0 t , k.n.n.v.).; N N n : 2 2 > o o < H D L U P O j.'.j.= I.$XUXUX",
"UXUXw.i.i.m.n.g.h.h.l.< k ,X,Xs 6 tXGXU.U v.v._.Q.: jXhXwX5Xk z l l d q @ $ ~.d.B.B.B.P E V.q.$XUXUX",
"UXUXUXR.= +XN.b.b.M.!.< d h r tXJXKXKXHXF } ^.T.: 7XgXzXzX8X9X9X1Xg h e % W k.v.h.n.g.h.h.b.0.=XUXUX",
"UXUXUXUXI oXB.N.N.x.^ . 5 iXAXUXUXUXUXLXHX@ 1 b jXhXzXzXpX9X9X<X,Xh e + X 1.z.v.n.g.g.h.C.G.0.UXUXUX",
"UXUXUXUXUXUXUXi.i.^ B sXUXUXUXUXUXUXUXKXKXIXM y 4XhX7X4X6Xj l V q q M o.F { ^.v.v.g.g.f.C.S.$XUXUXUX",
"UXUXUXUXUXUXUXUXUXUXUXUXUXUXUXUXUXUXKXJXFXAXV jXA A & & &     2 ) T.*.m @ ~.!.N.g.f.f.f.S.P.$XUXUXUX",
"UXUXUXUXUXUXUXUXUXUXUXUXUXUXUXUXFXjXrXeX5X2Xk f y : E.bX%X].c.`.`.) , q q : < R.m.g.Z.G.P.$XUXUXUXUX",
"UXUXUXUXUXUXUXUXUXUXUXUXUXUXUXSX6XgXkX0X6X;Xj u 2Xk & E.*X'.M.|.U.: rX0X0X7X4Xy 1 p.K.K.$Xw.UXUXUXUX",
"UXUXUXUXUXUXUXUXUXUXUXUXUXUXtXA 0XwX9X6X4Xi i j g k v * T (.x.i., y ;X9XzXzXgXhXf * a.c.r.UXUXUXUXUX",
"UXUXUXUXUXUXUXUXUXUXUXUXUXS > N f <Xj ,X0 s 6 6 d tXS *.B U.W.B vX8 j hXwXgXzXzXkXr GXHXIXUXUXUXUXUX",
"UXUXUXUXUXUXUXUXUXUXUXUXUXbXbXcXt g 9 9 h UXUXUXUXUXUXUXUXUXUXUXUXA r u hX7XhXhXfXj UXKXUXUXUXUXUXUX",
"UXUXUXUXUXUXUXUXUXUXUXUXUXUXUXy 9 ,X1X>X>Xs UXUXUXUXUXUXUXUXUXUXUXUXUX8 4 z a kXl lXUXKXUXUXUXUXUXUX",
"UXUXUXUXUXUXUXUXUXUXUXUXUX. # A 0XqX9X:X>Xi 3 V UXUXUXUXUXUXUXUXUXUXUXv N 4 4 u s 6 t mXLXUXUXUXUXUX",
"UXUXUXUXUXUXUXUXUXUXUXUXUXUXv rXgXzXqX:X:X>X>X0 7 AXKXUXUXUXUXUXUXUXUXUXA r 9XwX6X<X9 6 tXGXUXUXUXUX",
"UXUXUXUXUXUXUXUXUXUXUXUXUXUXUXz gXzXxX9X1X1X>X0 0 6 mXLXUXUXUXUXUXUXUXUX& Z fXaXqX9X;Xu s 8 GXUXUXUX",
"UXUXUXUXUXUXUXUXUXUXUXUXUXUXUXnX4XgXqXpX:X6X2X,X,Xh 7 GXUXUXUXUXUXUXUXUX. Z xXxXzXqX3X6X>Xg r UXUXUX",
"UXUXUXUXUXUXUXUXUXUXUXUXUXUXUXUXUX0XfXqX3X:X<X1X,X,XV V UXUXUXUXUXUXUXUXUX6 gXzXgX:X6X6X,Xh h yXUXUX",
"UXUXUXUXUXUXUXUXUXUXUXUXUXUXUXUXUXs 7X7X3X:X;X,X,X,Xh 6 MXUXUXUXUXUXUXUXUXt kXfXi s f r s k s 7 UXUX",
"UXUXUXUXUXUXUXUXUXUXUXUXUXUXUXGXcXUXrX5Xp >Xp j h 0 3 0 A UXUXUXUXUXUXUXUXt 5XjXnXGXAXJXAXt 0 7 UXUX",
"UXUXUXUXUXUXUXUXUXUXUXUXUXUXS mXUXMXmXNXt l h f 6 A V . MXUXUXUXUXUXUXUXUXUXy FXmXmXmXmXmXNXn v S UX",
"UXUXUXUXUXUXUXUXUXUXUXUXUXUXUXbXbXvXbXbX*.n N N cX*.> b b PXUXUXUXUXUXUXUXUXUXbXbX*.B : : > b b . UX",
"UXUXUXUXUXUXUXUXUXUXUXUXB Y.Y.w.r.w.y.r.r.Y.( Y.r.Y._ #., HXUXUXUXUXUXUXUXUXE.Y.r.r.r.r.r.#._ ) < + ",
"UXUXUXUXUXUXUXUXUXUXUXUX1 Q.Y.e.e.e.e.e.e.e.Y T Y Y Y ` , HXUXUXUXUXUXUXUXbXY.Y.a.e.w.Y Y Y Y ( ) m "
};
