/* XPM */
static char *_98bd7dbc8ba4177863464f0751868e0XFnQVR0LGQcjHTcs[] = {
/* columns rows colors chars-per-pixel */
"50 50 151 2 ",
"   c #0D0B0A",
".  c #110E0D",
"X  c #14100F",
"o  c #151211",
"O  c #1B1614",
"+  c #1E1816",
"@  c #1B1618",
"#  c #1E1A19",
"$  c #221A17",
"%  c #231D1C",
"&  c #281F1E",
"*  c #26201E",
"=  c #29211E",
"-  c #262120",
";  c #2C2523",
":  c #2E2826",
">  c #2D2528",
",  c #2E2A29",
"<  c #302724",
"1  c #322926",
"2  c #382C27",
"3  c #342C2A",
"4  c #392E2B",
"5  c #36302F",
"6  c #3B312D",
"7  c #362F30",
"8  c #353131",
"9  c #3D3432",
"0  c #3F3836",
"q  c #3F3839",
"w  c #42342E",
"e  c #423632",
"r  c #443935",
"t  c #4A3C35",
"y  c #453B39",
"u  c #4B3D3A",
"i  c #513F35",
"p  c #4D413C",
"a  c #52433D",
"s  c #59473E",
"d  c #5B483E",
"f  c #644E3F",
"g  c #4D4442",
"h  c #534542",
"j  c #594742",
"k  c #554945",
"l  c #5B4B45",
"z  c #554C49",
"x  c #5C4E49",
"c  c #5E5047",
"v  c #57504F",
"b  c #5D514C",
"n  c #5D5351",
"m  c #614E44",
"M  c #614F4A",
"N  c #645146",
"B  c #6A5547",
"V  c #63534C",
"C  c #69554C",
"Z  c #6C594D",
"A  c #735C4D",
"S  c #645651",
"D  c #6A5751",
"F  c #655953",
"G  c #6C5B53",
"H  c #665C58",
"J  c #6D5E58",
"K  c #725E53",
"L  c #725E58",
"P  c #6D615B",
"I  c #756155",
"U  c #796456",
"Y  c #74635B",
"T  c #7A655B",
"R  c #75695F",
"E  c #7C695D",
"W  c #736761",
"Q  c #7A6761",
"!  c #776961",
"~  c #756863",
"^  c #756965",
"/  c #7A6B63",
"(  c #7F6B60",
")  c #7C6B63",
"_  c #7A6B64",
"`  c #7A6C65",
"'  c #7D6E65",
"]  c #796E69",
"[  c #7C6E68",
"{  c #7F7067",
"}  c #7D716B",
"|  c #7E716B",
" . c #806957",
".. c #806459",
"X. c #836B5D",
"o. c #8C725F",
"O. c #806D62",
"+. c #836D63",
"@. c #896F64",
"#. c #846F69",
"$. c #837063",
"%. c #817066",
"&. c #857366",
"*. c #8E7461",
"=. c #8B7365",
"-. c #857369",
";. c #84736A",
":. c #8B756B",
">. c #89766C",
",. c #8B786A",
"<. c #89796F",
"1. c #8C796D",
"2. c #927563",
"3. c #917967",
"4. c #907769",
"5. c #937B6D",
"6. c #907C6F",
"7. c #987A6A",
"8. c #857672",
"9. c #847973",
"0. c #8D7B72",
"q. c #947D73",
"w. c #9D7F71",
"e. c #917E79",
"r. c #9B816E",
"t. c #8C8079",
"y. c #938070",
"u. c #918075",
"i. c #938075",
"p. c #958174",
"a. c #9B8373",
"s. c #95837A",
"d. c #98877B",
"f. c #9B867B",
"g. c #9D897A",
"h. c #A38877",
"j. c #A1877B",
"k. c #A08B7C",
"l. c #A38B7D",
"z. c #928883",
"x. c #9D8C83",
"c. c #9E8C83",
"v. c #9C8D85",
"b. c #A28C82",
"n. c #A49085",
"m. c #AF9681",
"M. c #AA9484",
"N. c #AF9485",
"B. c #A59389",
"V. c #AE998E",
"C. c #B49C8C",
/* pixels */
"y * 4 l K T C R x l u 9 O a k F b ] } ~ F S y   % 6 1 r a u r w ; ; 1 e 6 % O o % 9 l j l G %.} P b ",
"1 O 6 m Z K V Y K N e 3 . 6 t h k P ^ G x h %   = ; = < ; 1 = % , u V V x r > o % g E E Y Y } g.x.:.",
": : 1 r j s t d a j r % o : % , 9 a p e 6 % X : 9 r N m r ; X 3 h V X.E Y V 9 # * x _ f.y./ ~ O.>.x.",
": 1 - % ; 3 3 : ; 1 : % = % O o # ; , 1 3 4 y z V J &./ G r   p I Y &.' D I h # = c $.-.,.6.k.i.<.E ",
"9 y 0 9 9 u c p = o 1 5 6 r 6 ; : 3 e p V V b b G G G J u 3 . 3 h G J V N b d - % V ,.m.f.) <.i.} E ",
"V P S F G V F P u X 0 b V h h a x x h m S G V I U %.<.E B 6 + a Y ^ R *.K h a % % x %.N.x.<.R Y ` $.",
"/ s.9./ <.%.) <.k # y n P F S R ) G V A m K X.T G J ^ S x u % l Y S T 3.T j 3 X 3 G -.v.0.-.q._ / ,.",
"9.z.B.s.p.E X.) b % g z n F G / Y U U  .T V K I S x h b p : O k V O.=.&.Y K 1 X e h k H / :.I l F G ",
"-.) q.q.:.,.' t.p o 0 u V h n G S K I Z V d a x x a p p 3 o ; z S G V Y Y s # + 3 r y r k h k s h p ",
"E Y Y Y E x V g 4 X % 3 3 0 p g 0 t r 9 1 : 1 ; 1 3 - - - o 6 h C K K G l 1 O - * : 3 , 3 1 3 > > ; ",
"T K I I Y G k 6 o O - , : : ; % % % % % > : 3 h e h y 3 # % 6 h K A B e 1 o 3 r 0 9 y y k r q s 3 3 ",
",.O.>./ F h 4 O % 3 e 6 y p u e e 3 O 6 r a j 2.Y H P g > O 5 p a u : ; . > g x z x I K V x J Y C u ",
"N V F S h e + # y k x l r G K Z V Z 1 w x C C X.O.b P n 5 % p S M g : O 1 e k n W ] 0.) T S J )  .y ",
"1 6 1 3 3 % ; p h / %.T Y =.E V Y C < 6 l <.E K ..Y 0.G p 9 z F G Y y * p l l u k x Y ~ =.R -.p.G u ",
": ; O % . * r k Z E E Y Y $.Y l h m ; 3 k G $.I Y F R ~ S x G { F P k r F R i.M.a.,.G V R K s.{ U 6 ",
"y 6 1 ;   w u V I F A V ~ R V V Z N % > k I E R G W -.P z g P &.Y J h a x C R i.f.-.1.G V Y F b V 3 ",
"l u 3 1   e p a V h t z v S I A V p & % e F -.6.E Y ` R y 7 z Y ~ Y u r x V Y W G S -.E K G x V 0 # ",
"l a 9 6 o 3 r t r e 4 1 9 9 0 y 9 5 + ; 9 x 0.k.5.R F G 6 ; : 0 p e ; ; u u l l l V V V G C a 3 % @ ",
"r 6 e w : 3 6 6 1 & ; % # # % 3 ; % o % 6 b 0.<.s.0.l r % . o o % % O ; 4 3 e t t p h h j a a 4 O % ",
"p s t r r r r s d m a 6 1   ; r a i * O % u S Y K V b 5   ; r a e 3 + O + O % ; ; : 3 : = # % % % % ",
"' P ^ Y Y I G N Z K U h 9   : r a e 3 % . 1 h G K x 0 o # p x V V a 1 o 6 w e r w e t 9 6 6 6 6 3 : ",
"C M u y h x a d Z N Z l h o 6 u t p e 6 . ; 8 z S b 3 o 9 h V C b a t 1 G I ~ X.X.o.Z V S E Y G l r ",
"a k l e e 3 t s l l m N u O 1 s p l p r # # > 3 9 r % # 3 p p l V j l : p V G R :.5.E -.[ <.&./ :.K ",
"u a V j a a A A m j l t r O = 9 3 9 p u w % > 6 1 + = ; ; 9 p l V r ; O = b U %.:.g.e.n.f.v.B.q.:.k.",
"6 6 e a s t a a t 9 e 3 ; X % < 6 1 1 1 : : 1 , 3 6 2 e % & 6 6 e < ; O < a C G G Y Y -.} ~ -.} $.E ",
"; 1 ; % = 1 1 1 ; < 4 % . o X = 1 1 6 6 , 3 r 9 0 t d B l t e 4 3 1 % ; r r r 9 y y y y h z g h h g ",
"u x u 6 O + t a j h l r % % O % 9 u x M b h z h x N J X.Y G Z l G Z e a p l p - % ; - % - > 1 1 9 3 ",
") #.&.l ; O r l K G K N e ; o ; e C K -.Y G l V G V S #.O.Y U F G S a V G ) C t 1 r u 9 9 9 9 u p u ",
"Y Y -.S 1 + u h G ,.-.5.N 1   % 4 j G G E -.Y G S D G R ,.R K V C k 6 e x G l e % h Y P / V V G V J ",
"V K V l 4 + k l V Y ) ' Y a   + t N V C D G S L G S _ Y Y x V l u y * 6 l V Z e 1 S [ -.~ Y S S V J ",
"Y b x u * % l C E V G K U x & X 1 6 p s h y a x x k x V N j a u 6 ; 1 h G G N t 9 F x.8.[ 0.1.L U / ",
"Y G V 6 o e V R g.T 1.p.E G l % % ; ; 1 ; : : 1 3 3 6 6 4 < ; ; 1 9 k V R O.E j 3 y ^ s.~ :.e.D O.X.",
"b V p ; ; a N Y / G S -.O.G N r ; O = 4 4 e s h u e 3 : 3 1 4 6 x S G ' 0.:.J l % 8 F s.0.#.,.Y q.W ",
"6 w w ; 3 e p a j C a k l l V V 6 O & a s G K ) U G l 2 O w N V ' / ' S h l k u # > l P s.&.>.,.R S ",
"t t 1 ; 1 3 e r r r 3 w w 4 9 9 1 % w N D 0.,.n.g.' G t X 6 V a.k.q.-.q.G r u y @ # y g z V V u N j ",
"B Z t + 3 1 1 1 ; ; 1 % # % # % ; 6 m U @.=.h.f.0.l.) l $ w l U g.V.q.k.q.) u > @ O : 9 : > < 3 9 r ",
"Z E l O 5 h G G l t p 1 X & 6 6 r N A K Y @.1.b.a.O.,.j % a K Y X.0.b.j.g.q.L p O . # ; & 3 6 6 9 9 ",
"u k b % 6 V -.} / G V r   6 e u x X.X.T K G _ k.g.a.U t % p T R ) ' e.k.1.&.Y j + : u m j 9 9 k h h ",
"U l a ; 3 G Q W %.E E h . < u r V N G l l K C k S C j : ; e x W f.#.1.>.b.C.q.h & s U O.R R Z y x D ",
"*.X.G 1 3 l ) -.-.O.O.r   O w u e r h u r r t e 3 4 % # O 4 e S Q ) R Y L @.Q l & u S Y Y X.G E G Q ",
"T T k 3 9 G R ) <.R l t   X 2 1 ; % : 1 < 1 e 6 3 6 6 3 O 1 a J Y X.=.4.w.k.@.m % u x O.=.X.X.T L ) ",
"@.$.V t 3 J #.Y V G k 6   6 d t r u r e u e h k b V l a 1 o t j G T T E K j p 1 % 4 e M Y 1.5.=.=.q.",
">.` J u 0 n ' / / E V 9 + l K h C D S V G U C M k N M l 4   ; 3 y a t w 1 1 - % : % % 4 u R K X.@.:.",
"=.S h : 6 p k H / U Z 6 ; Z #.E C ) -.D C ' 0.f.a.R a 4 %   o ; ; : 1 1 4 3 : 3 e e < o @ h G U @.a.",
"T V 1 . 3 j Y G V N p % 4 F K G R / -.O.O.e.q.<.:.,.,.N t O O 3 u a x l j a r h V B a w o < V G U L ",
"e 9 ; X 3 u x V j y 3 . 9 G =.Y G Y G O.@.:.f.C.a.@.p.C u o 1 M a g J G K T K K K G C B w O r V K =.",
"; & o % ; < 9 9 4 - #   a N V J R 5.O.,.a.q.0.h.k.j.b.Y e O a J G l M U T X.Y q.5.K D E A 4 O r x E ",
"= = < ; * ; ; ; X o o - 9 h x V U L R Y E f.b.q.1.j.=.V t O u G U C K E r.*.K X.g.) @.5.2.f % o 4 G ",
"j B Z j h r u 9 O % o < e t j G K Y l C G #.1.a.O.O.R C h % u V D T K V K =.X.T Y Y ,.7.7.B 6 = X 3 ",
"O.q.:.#.Y J g p 3 3 O < e l m k Z Y C Z N O.&.#.&.Y Y V h % s U G D C N C ,.O.T L T / ,.E x 9 3 % X "
};
